<mxfile host="app.diagrams.net" modified="2022-11-17T16:48:02.025Z" agent="5.0 (Windows NT 10.0; Win64; x64) AppleWebKit/537.36 (KHTML, like Gecko) Chrome/107.0.0.0 Safari/537.36" etag="zEBvYXdHKilTFanlXcFK" version="20.5.3" type="github">
  <diagram id="oQbF4t7Mb27zh5OeJv7x" name="第 1 页">
    <mxGraphModel dx="4038" dy="539" grid="1" gridSize="10" guides="1" tooltips="1" connect="1" arrows="1" fold="1" page="1" pageScale="1" pageWidth="1500" pageHeight="1200" math="0" shadow="0">
      <root>
        <mxCell id="0" />
        <mxCell id="1" parent="0" />
        <mxCell id="YBqSXtyDXEX9drz1hpcT-1" value="" style="rounded=0;whiteSpace=wrap;html=1;" vertex="1" parent="1">
          <mxGeometry x="-2690" y="80" width="200" height="460" as="geometry" />
        </mxCell>
        <mxCell id="YBqSXtyDXEX9drz1hpcT-2" value="MUX_PC" style="rounded=0;whiteSpace=wrap;html=1;" vertex="1" parent="1">
          <mxGeometry x="-2600" y="150" width="50" height="130" as="geometry" />
        </mxCell>
        <mxCell id="YBqSXtyDXEX9drz1hpcT-3" value="" style="edgeStyle=none;orthogonalLoop=1;jettySize=auto;html=1;rounded=0;" edge="1" parent="1">
          <mxGeometry width="80" relative="1" as="geometry">
            <mxPoint x="-2620" y="170" as="sourcePoint" />
            <mxPoint x="-2600" y="170" as="targetPoint" />
            <Array as="points" />
          </mxGeometry>
        </mxCell>
        <mxCell id="YBqSXtyDXEX9drz1hpcT-4" value="ifid_npc" style="text;html=1;resizable=0;autosize=1;align=center;verticalAlign=middle;points=[];fillColor=none;strokeColor=none;rounded=0;" vertex="1" parent="1">
          <mxGeometry x="-2675" y="150" width="60" height="30" as="geometry" />
        </mxCell>
        <mxCell id="YBqSXtyDXEX9drz1hpcT-5" value="" style="edgeStyle=none;orthogonalLoop=1;jettySize=auto;html=1;rounded=0;" edge="1" parent="1">
          <mxGeometry width="80" relative="1" as="geometry">
            <mxPoint x="-2620" y="190" as="sourcePoint" />
            <mxPoint x="-2600" y="190" as="targetPoint" />
            <Array as="points" />
          </mxGeometry>
        </mxCell>
        <mxCell id="YBqSXtyDXEX9drz1hpcT-6" value="" style="edgeStyle=none;orthogonalLoop=1;jettySize=auto;html=1;rounded=0;" edge="1" parent="1">
          <mxGeometry width="80" relative="1" as="geometry">
            <mxPoint x="-2620" y="210" as="sourcePoint" />
            <mxPoint x="-2600" y="210" as="targetPoint" />
            <Array as="points" />
          </mxGeometry>
        </mxCell>
        <mxCell id="YBqSXtyDXEX9drz1hpcT-7" value="" style="edgeStyle=none;orthogonalLoop=1;jettySize=auto;html=1;rounded=0;" edge="1" parent="1">
          <mxGeometry width="80" relative="1" as="geometry">
            <mxPoint x="-2620" y="230" as="sourcePoint" />
            <mxPoint x="-2600" y="230" as="targetPoint" />
            <Array as="points" />
          </mxGeometry>
        </mxCell>
        <mxCell id="YBqSXtyDXEX9drz1hpcT-8" value="" style="edgeStyle=none;orthogonalLoop=1;jettySize=auto;html=1;rounded=0;" edge="1" parent="1">
          <mxGeometry width="80" relative="1" as="geometry">
            <mxPoint x="-2620" y="250" as="sourcePoint" />
            <mxPoint x="-2600" y="250" as="targetPoint" />
            <Array as="points" />
          </mxGeometry>
        </mxCell>
        <mxCell id="YBqSXtyDXEX9drz1hpcT-9" value="&lt;div style=&quot;background-color: rgb(255, 255, 255); line-height: 19px;&quot;&gt;&lt;font style=&quot;font-size: 12px;&quot;&gt;ifid_npc[31:28],ifid_ir[25:0],2&#39;b0&lt;/font&gt;&lt;/div&gt;" style="text;html=1;resizable=0;autosize=1;align=center;verticalAlign=middle;points=[];fillColor=none;strokeColor=none;rounded=0;" vertex="1" parent="1">
          <mxGeometry x="-2805" y="173.25" width="190" height="30" as="geometry" />
        </mxCell>
        <mxCell id="YBqSXtyDXEX9drz1hpcT-10" value="ifid_npc+ext18_out" style="text;html=1;resizable=0;autosize=1;align=center;verticalAlign=middle;points=[];fillColor=none;strokeColor=none;rounded=0;" vertex="1" parent="1">
          <mxGeometry x="-2730" y="192.5" width="120" height="30" as="geometry" />
        </mxCell>
        <mxCell id="YBqSXtyDXEX9drz1hpcT-11" value="rf_data1" style="text;html=1;resizable=0;autosize=1;align=center;verticalAlign=middle;points=[];fillColor=none;strokeColor=none;rounded=0;" vertex="1" parent="1">
          <mxGeometry x="-2677.5" y="213" width="70" height="30" as="geometry" />
        </mxCell>
        <mxCell id="YBqSXtyDXEX9drz1hpcT-12" value="exc_addr" style="text;html=1;resizable=0;autosize=1;align=center;verticalAlign=middle;points=[];fillColor=none;strokeColor=none;rounded=0;" vertex="1" parent="1">
          <mxGeometry x="-2680" y="230" width="70" height="30" as="geometry" />
        </mxCell>
        <mxCell id="YBqSXtyDXEX9drz1hpcT-13" value="" style="edgeStyle=none;orthogonalLoop=1;jettySize=auto;html=1;rounded=0;" edge="1" parent="1">
          <mxGeometry width="80" relative="1" as="geometry">
            <mxPoint x="-2550" y="214.79999999999995" as="sourcePoint" />
            <mxPoint x="-2530" y="214.79999999999995" as="targetPoint" />
            <Array as="points" />
          </mxGeometry>
        </mxCell>
        <mxCell id="YBqSXtyDXEX9drz1hpcT-14" value="mux_pc_out" style="text;html=1;resizable=0;autosize=1;align=center;verticalAlign=middle;points=[];fillColor=none;strokeColor=none;rounded=0;" vertex="1" parent="1">
          <mxGeometry x="-2540" y="200" width="90" height="30" as="geometry" />
        </mxCell>
        <mxCell id="YBqSXtyDXEX9drz1hpcT-15" value="PC" style="rounded=0;whiteSpace=wrap;html=1;fontSize=11;" vertex="1" parent="1">
          <mxGeometry x="-2610" y="350" width="60" height="50" as="geometry" />
        </mxCell>
        <mxCell id="YBqSXtyDXEX9drz1hpcT-16" value="" style="edgeStyle=none;orthogonalLoop=1;jettySize=auto;html=1;rounded=0;" edge="1" parent="1">
          <mxGeometry width="80" relative="1" as="geometry">
            <mxPoint x="-2630" y="374.76" as="sourcePoint" />
            <mxPoint x="-2610" y="374.76" as="targetPoint" />
            <Array as="points" />
          </mxGeometry>
        </mxCell>
        <mxCell id="YBqSXtyDXEX9drz1hpcT-17" value="mux_pc_out" style="text;html=1;resizable=0;autosize=1;align=center;verticalAlign=middle;points=[];fillColor=none;strokeColor=none;rounded=0;" vertex="1" parent="1">
          <mxGeometry x="-2700" y="350" width="90" height="30" as="geometry" />
        </mxCell>
        <mxCell id="YBqSXtyDXEX9drz1hpcT-18" value="pc_out" style="text;html=1;resizable=0;autosize=1;align=center;verticalAlign=middle;points=[];fillColor=none;strokeColor=none;rounded=0;" vertex="1" parent="1">
          <mxGeometry x="-2550" y="350" width="60" height="30" as="geometry" />
        </mxCell>
        <mxCell id="YBqSXtyDXEX9drz1hpcT-19" value="" style="edgeStyle=none;orthogonalLoop=1;jettySize=auto;html=1;rounded=0;" edge="1" parent="1">
          <mxGeometry width="80" relative="1" as="geometry">
            <mxPoint x="-2550" y="374.76" as="sourcePoint" />
            <mxPoint x="-2530" y="374.76" as="targetPoint" />
            <Array as="points" />
          </mxGeometry>
        </mxCell>
        <mxCell id="YBqSXtyDXEX9drz1hpcT-20" value="IMEM" style="rounded=0;whiteSpace=wrap;html=1;fontSize=11;" vertex="1" parent="1">
          <mxGeometry x="-2625" y="430" width="70" height="50" as="geometry" />
        </mxCell>
        <mxCell id="YBqSXtyDXEX9drz1hpcT-21" value="" style="edgeStyle=none;orthogonalLoop=1;jettySize=auto;html=1;rounded=0;" edge="1" parent="1">
          <mxGeometry width="80" relative="1" as="geometry">
            <mxPoint x="-2645" y="454.76" as="sourcePoint" />
            <mxPoint x="-2625" y="454.76" as="targetPoint" />
            <Array as="points" />
          </mxGeometry>
        </mxCell>
        <mxCell id="YBqSXtyDXEX9drz1hpcT-22" value="pc_out" style="text;html=1;resizable=0;autosize=1;align=center;verticalAlign=middle;points=[];fillColor=none;strokeColor=none;rounded=0;" vertex="1" parent="1">
          <mxGeometry x="-2690" y="430" width="60" height="30" as="geometry" />
        </mxCell>
        <mxCell id="YBqSXtyDXEX9drz1hpcT-23" value="" style="edgeStyle=none;orthogonalLoop=1;jettySize=auto;html=1;rounded=0;" edge="1" parent="1">
          <mxGeometry width="80" relative="1" as="geometry">
            <mxPoint x="-2555" y="454.79999999999995" as="sourcePoint" />
            <mxPoint x="-2535" y="454.79999999999995" as="targetPoint" />
            <Array as="points" />
          </mxGeometry>
        </mxCell>
        <mxCell id="YBqSXtyDXEX9drz1hpcT-24" value="instr" style="text;html=1;resizable=0;autosize=1;align=center;verticalAlign=middle;points=[];fillColor=none;strokeColor=none;rounded=0;" vertex="1" parent="1">
          <mxGeometry x="-2550" y="430" width="50" height="30" as="geometry" />
        </mxCell>
        <mxCell id="YBqSXtyDXEX9drz1hpcT-25" value="&lt;b&gt;&lt;font style=&quot;font-size: 13px;&quot;&gt;IF&lt;/font&gt;&lt;/b&gt;" style="text;html=1;resizable=0;autosize=1;align=center;verticalAlign=middle;points=[];fillColor=none;strokeColor=none;rounded=0;" vertex="1" parent="1">
          <mxGeometry x="-2695" y="50" width="40" height="30" as="geometry" />
        </mxCell>
        <mxCell id="YBqSXtyDXEX9drz1hpcT-26" value="" style="rounded=0;whiteSpace=wrap;html=1;fontSize=13;" vertex="1" parent="1">
          <mxGeometry x="-2440" y="80" width="90" height="460" as="geometry" />
        </mxCell>
        <mxCell id="YBqSXtyDXEX9drz1hpcT-27" value="&lt;b&gt;&lt;font style=&quot;font-size: 13px;&quot;&gt;IF/ID&lt;/font&gt;&lt;/b&gt;" style="text;html=1;resizable=0;autosize=1;align=center;verticalAlign=middle;points=[];fillColor=none;strokeColor=none;rounded=0;" vertex="1" parent="1">
          <mxGeometry x="-2440" y="50" width="50" height="30" as="geometry" />
        </mxCell>
        <mxCell id="YBqSXtyDXEX9drz1hpcT-28" value="NPC" style="rounded=0;whiteSpace=wrap;html=1;fontSize=13;" vertex="1" parent="1">
          <mxGeometry x="-2410" y="185" width="30" height="35" as="geometry" />
        </mxCell>
        <mxCell id="YBqSXtyDXEX9drz1hpcT-29" value="" style="edgeStyle=none;orthogonalLoop=1;jettySize=auto;html=1;rounded=0;" edge="1" parent="1">
          <mxGeometry width="80" relative="1" as="geometry">
            <mxPoint x="-2430" y="204.89999999999998" as="sourcePoint" />
            <mxPoint x="-2410" y="204.89999999999998" as="targetPoint" />
            <Array as="points" />
          </mxGeometry>
        </mxCell>
        <mxCell id="YBqSXtyDXEX9drz1hpcT-30" value="pc_out+4" style="text;html=1;resizable=0;autosize=1;align=center;verticalAlign=middle;points=[];fillColor=none;strokeColor=none;rounded=0;" vertex="1" parent="1">
          <mxGeometry x="-2480" y="180" width="70" height="30" as="geometry" />
        </mxCell>
        <mxCell id="YBqSXtyDXEX9drz1hpcT-31" value="" style="edgeStyle=none;orthogonalLoop=1;jettySize=auto;html=1;rounded=0;" edge="1" parent="1">
          <mxGeometry width="80" relative="1" as="geometry">
            <mxPoint x="-2380" y="204.89999999999998" as="sourcePoint" />
            <mxPoint x="-2360" y="204.89999999999998" as="targetPoint" />
            <Array as="points" />
          </mxGeometry>
        </mxCell>
        <mxCell id="YBqSXtyDXEX9drz1hpcT-32" value="ifid_npc" style="text;html=1;resizable=0;autosize=1;align=center;verticalAlign=middle;points=[];fillColor=none;strokeColor=none;rounded=0;" vertex="1" parent="1">
          <mxGeometry x="-2385" y="180" width="60" height="30" as="geometry" />
        </mxCell>
        <mxCell id="YBqSXtyDXEX9drz1hpcT-33" value="IR" style="rounded=0;whiteSpace=wrap;html=1;fontSize=13;" vertex="1" parent="1">
          <mxGeometry x="-2410" y="270" width="30" height="40" as="geometry" />
        </mxCell>
        <mxCell id="YBqSXtyDXEX9drz1hpcT-34" value="" style="edgeStyle=none;orthogonalLoop=1;jettySize=auto;html=1;rounded=0;" edge="1" parent="1">
          <mxGeometry width="80" relative="1" as="geometry">
            <mxPoint x="-2430" y="290" as="sourcePoint" />
            <mxPoint x="-2410" y="290" as="targetPoint" />
            <Array as="points" />
          </mxGeometry>
        </mxCell>
        <mxCell id="YBqSXtyDXEX9drz1hpcT-35" value="instr" style="text;html=1;resizable=0;autosize=1;align=center;verticalAlign=middle;points=[];fillColor=none;strokeColor=none;rounded=0;" vertex="1" parent="1">
          <mxGeometry x="-2460" y="270" width="50" height="30" as="geometry" />
        </mxCell>
        <mxCell id="YBqSXtyDXEX9drz1hpcT-36" value="" style="edgeStyle=none;orthogonalLoop=1;jettySize=auto;html=1;rounded=0;" edge="1" parent="1">
          <mxGeometry width="80" relative="1" as="geometry">
            <mxPoint x="-2380" y="289.83000000000004" as="sourcePoint" />
            <mxPoint x="-2360" y="289.83000000000004" as="targetPoint" />
            <Array as="points" />
          </mxGeometry>
        </mxCell>
        <mxCell id="YBqSXtyDXEX9drz1hpcT-37" value="ifid_ir" style="text;html=1;resizable=0;autosize=1;align=center;verticalAlign=middle;points=[];fillColor=none;strokeColor=none;rounded=0;" vertex="1" parent="1">
          <mxGeometry x="-2385" y="270" width="50" height="30" as="geometry" />
        </mxCell>
        <mxCell id="YBqSXtyDXEX9drz1hpcT-38" value="" style="rounded=0;whiteSpace=wrap;html=1;" vertex="1" parent="1">
          <mxGeometry x="-2313" y="85" width="414" height="460" as="geometry" />
        </mxCell>
        <mxCell id="YBqSXtyDXEX9drz1hpcT-39" value="=" style="rounded=0;whiteSpace=wrap;html=1;fontSize=13;" vertex="1" parent="1">
          <mxGeometry x="-2001" y="100" width="30" height="40" as="geometry" />
        </mxCell>
        <mxCell id="YBqSXtyDXEX9drz1hpcT-40" value="" style="edgeStyle=none;orthogonalLoop=1;jettySize=auto;html=1;rounded=0;" edge="1" parent="1">
          <mxGeometry width="80" relative="1" as="geometry">
            <mxPoint x="-2021" y="110" as="sourcePoint" />
            <mxPoint x="-2001" y="110" as="targetPoint" />
            <Array as="points" />
          </mxGeometry>
        </mxCell>
        <mxCell id="YBqSXtyDXEX9drz1hpcT-41" value="Rs" style="text;html=1;resizable=0;autosize=1;align=center;verticalAlign=middle;points=[];fillColor=none;strokeColor=none;rounded=0;" vertex="1" parent="1">
          <mxGeometry x="-2045" y="90" width="40" height="30" as="geometry" />
        </mxCell>
        <mxCell id="YBqSXtyDXEX9drz1hpcT-42" value="" style="edgeStyle=none;orthogonalLoop=1;jettySize=auto;html=1;rounded=0;" edge="1" parent="1">
          <mxGeometry width="80" relative="1" as="geometry">
            <mxPoint x="-1971" y="119.83000000000004" as="sourcePoint" />
            <mxPoint x="-1951" y="119.83000000000004" as="targetPoint" />
            <Array as="points" />
          </mxGeometry>
        </mxCell>
        <mxCell id="YBqSXtyDXEX9drz1hpcT-43" value="eq_out" style="text;html=1;resizable=0;autosize=1;align=center;verticalAlign=middle;points=[];fillColor=none;strokeColor=none;rounded=0;" vertex="1" parent="1">
          <mxGeometry x="-1974" y="90" width="60" height="30" as="geometry" />
        </mxCell>
        <mxCell id="YBqSXtyDXEX9drz1hpcT-44" value="" style="edgeStyle=none;orthogonalLoop=1;jettySize=auto;html=1;rounded=0;" edge="1" parent="1">
          <mxGeometry width="80" relative="1" as="geometry">
            <mxPoint x="-2021" y="130" as="sourcePoint" />
            <mxPoint x="-2001" y="130" as="targetPoint" />
            <Array as="points" />
          </mxGeometry>
        </mxCell>
        <mxCell id="YBqSXtyDXEX9drz1hpcT-45" value="Rt" style="text;html=1;resizable=0;autosize=1;align=center;verticalAlign=middle;points=[];fillColor=none;strokeColor=none;rounded=0;" vertex="1" parent="1">
          <mxGeometry x="-2045" y="110" width="40" height="30" as="geometry" />
        </mxCell>
        <mxCell id="YBqSXtyDXEX9drz1hpcT-46" value="HI" style="rounded=0;whiteSpace=wrap;html=1;" vertex="1" parent="1">
          <mxGeometry x="-2206" y="132.75" width="40" height="35" as="geometry" />
        </mxCell>
        <mxCell id="YBqSXtyDXEX9drz1hpcT-47" value="" style="edgeStyle=none;orthogonalLoop=1;jettySize=auto;html=1;rounded=0;" edge="1" parent="1">
          <mxGeometry width="80" relative="1" as="geometry">
            <mxPoint x="-2226" y="157.49" as="sourcePoint" />
            <mxPoint x="-2206" y="157.49" as="targetPoint" />
            <Array as="points" />
          </mxGeometry>
        </mxCell>
        <mxCell id="YBqSXtyDXEX9drz1hpcT-48" value="mux_hi_out" style="text;html=1;resizable=0;autosize=1;align=center;verticalAlign=middle;points=[];fillColor=none;strokeColor=none;rounded=0;" vertex="1" parent="1">
          <mxGeometry x="-2296" y="132.75" width="90" height="30" as="geometry" />
        </mxCell>
        <mxCell id="YBqSXtyDXEX9drz1hpcT-49" value="" style="edgeStyle=none;orthogonalLoop=1;jettySize=auto;html=1;rounded=0;" edge="1" parent="1">
          <mxGeometry width="80" relative="1" as="geometry">
            <mxPoint x="-2166" y="150.16000000000008" as="sourcePoint" />
            <mxPoint x="-2146" y="150.16000000000008" as="targetPoint" />
            <Array as="points" />
          </mxGeometry>
        </mxCell>
        <mxCell id="YBqSXtyDXEX9drz1hpcT-50" value="hi_out" style="text;html=1;resizable=0;autosize=1;align=center;verticalAlign=middle;points=[];fillColor=none;strokeColor=none;rounded=0;" vertex="1" parent="1">
          <mxGeometry x="-2166" y="127.75" width="60" height="30" as="geometry" />
        </mxCell>
        <mxCell id="YBqSXtyDXEX9drz1hpcT-51" value="LO" style="rounded=0;whiteSpace=wrap;html=1;" vertex="1" parent="1">
          <mxGeometry x="-2206" y="178.25" width="40" height="40" as="geometry" />
        </mxCell>
        <mxCell id="YBqSXtyDXEX9drz1hpcT-52" value="" style="edgeStyle=none;orthogonalLoop=1;jettySize=auto;html=1;rounded=0;" edge="1" parent="1">
          <mxGeometry width="80" relative="1" as="geometry">
            <mxPoint x="-2226" y="202.99" as="sourcePoint" />
            <mxPoint x="-2206" y="202.99" as="targetPoint" />
            <Array as="points" />
          </mxGeometry>
        </mxCell>
        <mxCell id="YBqSXtyDXEX9drz1hpcT-53" value="mux_lo_out" style="text;html=1;resizable=0;autosize=1;align=center;verticalAlign=middle;points=[];fillColor=none;strokeColor=none;rounded=0;" vertex="1" parent="1">
          <mxGeometry x="-2300" y="178.25" width="90" height="30" as="geometry" />
        </mxCell>
        <mxCell id="YBqSXtyDXEX9drz1hpcT-54" value="" style="edgeStyle=none;orthogonalLoop=1;jettySize=auto;html=1;rounded=0;" edge="1" parent="1">
          <mxGeometry width="80" relative="1" as="geometry">
            <mxPoint x="-2166" y="198.25" as="sourcePoint" />
            <mxPoint x="-2146" y="198.25" as="targetPoint" />
            <Array as="points" />
          </mxGeometry>
        </mxCell>
        <mxCell id="YBqSXtyDXEX9drz1hpcT-55" value="lo_out" style="text;html=1;resizable=0;autosize=1;align=center;verticalAlign=middle;points=[];fillColor=none;strokeColor=none;rounded=0;" vertex="1" parent="1">
          <mxGeometry x="-2166" y="173.25" width="60" height="30" as="geometry" />
        </mxCell>
        <mxCell id="YBqSXtyDXEX9drz1hpcT-56" value="CP0" style="rounded=0;whiteSpace=wrap;html=1;" vertex="1" parent="1">
          <mxGeometry x="-2216" y="238.25" width="80" height="110" as="geometry" />
        </mxCell>
        <mxCell id="YBqSXtyDXEX9drz1hpcT-57" value="ifid_npc" style="text;html=1;resizable=0;autosize=1;align=center;verticalAlign=middle;points=[];fillColor=none;strokeColor=none;rounded=0;" vertex="1" parent="1">
          <mxGeometry x="-2275" y="228.25" width="60" height="30" as="geometry" />
        </mxCell>
        <mxCell id="YBqSXtyDXEX9drz1hpcT-58" value="" style="edgeStyle=none;orthogonalLoop=1;jettySize=auto;html=1;rounded=0;" edge="1" parent="1">
          <mxGeometry width="80" relative="1" as="geometry">
            <mxPoint x="-2235" y="253.25" as="sourcePoint" />
            <mxPoint x="-2215" y="253.25" as="targetPoint" />
            <Array as="points" />
          </mxGeometry>
        </mxCell>
        <mxCell id="YBqSXtyDXEX9drz1hpcT-59" value="ifid_ir" style="text;html=1;resizable=0;autosize=1;align=center;verticalAlign=middle;points=[];fillColor=none;strokeColor=none;rounded=0;" vertex="1" parent="1">
          <mxGeometry x="-2270" y="258.25" width="50" height="30" as="geometry" />
        </mxCell>
        <mxCell id="YBqSXtyDXEX9drz1hpcT-60" value="" style="edgeStyle=none;orthogonalLoop=1;jettySize=auto;html=1;rounded=0;" edge="1" parent="1">
          <mxGeometry width="80" relative="1" as="geometry">
            <mxPoint x="-2235" y="283.25" as="sourcePoint" />
            <mxPoint x="-2215" y="283.25" as="targetPoint" />
            <Array as="points" />
          </mxGeometry>
        </mxCell>
        <mxCell id="YBqSXtyDXEX9drz1hpcT-61" value="mux_addr_out" style="text;html=1;resizable=0;autosize=1;align=center;verticalAlign=middle;points=[];fillColor=none;strokeColor=none;rounded=0;" vertex="1" parent="1">
          <mxGeometry x="-2310" y="288.25" width="100" height="30" as="geometry" />
        </mxCell>
        <mxCell id="YBqSXtyDXEX9drz1hpcT-62" value="" style="edgeStyle=none;orthogonalLoop=1;jettySize=auto;html=1;rounded=0;" edge="1" parent="1">
          <mxGeometry width="80" relative="1" as="geometry">
            <mxPoint x="-2235" y="313.25" as="sourcePoint" />
            <mxPoint x="-2215" y="313.25" as="targetPoint" />
            <Array as="points" />
          </mxGeometry>
        </mxCell>
        <mxCell id="YBqSXtyDXEX9drz1hpcT-63" value="mux_data_out" style="text;html=1;resizable=0;autosize=1;align=center;verticalAlign=middle;points=[];fillColor=none;strokeColor=none;rounded=0;" vertex="1" parent="1">
          <mxGeometry x="-2310" y="318.25" width="100" height="30" as="geometry" />
        </mxCell>
        <mxCell id="YBqSXtyDXEX9drz1hpcT-64" value="" style="edgeStyle=none;orthogonalLoop=1;jettySize=auto;html=1;rounded=0;" edge="1" parent="1">
          <mxGeometry width="80" relative="1" as="geometry">
            <mxPoint x="-2235" y="343.25" as="sourcePoint" />
            <mxPoint x="-2215" y="343.25" as="targetPoint" />
            <Array as="points" />
          </mxGeometry>
        </mxCell>
        <mxCell id="YBqSXtyDXEX9drz1hpcT-65" value="exc_addr" style="text;html=1;resizable=0;autosize=1;align=center;verticalAlign=middle;points=[];fillColor=none;strokeColor=none;rounded=0;" vertex="1" parent="1">
          <mxGeometry x="-2136" y="238.25" width="70" height="30" as="geometry" />
        </mxCell>
        <mxCell id="YBqSXtyDXEX9drz1hpcT-66" value="" style="edgeStyle=none;orthogonalLoop=1;jettySize=auto;html=1;rounded=0;" edge="1" parent="1">
          <mxGeometry width="80" relative="1" as="geometry">
            <mxPoint x="-2136" y="263.25" as="sourcePoint" />
            <mxPoint x="-2116" y="263.25" as="targetPoint" />
            <Array as="points" />
          </mxGeometry>
        </mxCell>
        <mxCell id="YBqSXtyDXEX9drz1hpcT-67" value="cp0_data" style="text;html=1;resizable=0;autosize=1;align=center;verticalAlign=middle;points=[];fillColor=none;strokeColor=none;rounded=0;" vertex="1" parent="1">
          <mxGeometry x="-2142" y="288.25" width="70" height="30" as="geometry" />
        </mxCell>
        <mxCell id="YBqSXtyDXEX9drz1hpcT-68" value="" style="edgeStyle=none;orthogonalLoop=1;jettySize=auto;html=1;rounded=0;" edge="1" parent="1">
          <mxGeometry width="80" relative="1" as="geometry">
            <mxPoint x="-2136" y="313.25" as="sourcePoint" />
            <mxPoint x="-2116" y="313.25" as="targetPoint" />
            <Array as="points" />
          </mxGeometry>
        </mxCell>
        <mxCell id="YBqSXtyDXEX9drz1hpcT-69" value="RegFile" style="rounded=0;whiteSpace=wrap;html=1;" vertex="1" parent="1">
          <mxGeometry x="-2221" y="377.25" width="90" height="130" as="geometry" />
        </mxCell>
        <mxCell id="YBqSXtyDXEX9drz1hpcT-70" value="ifid_ir[rs](Rsc)" style="text;html=1;resizable=0;autosize=1;align=center;verticalAlign=middle;points=[];fillColor=none;strokeColor=none;rounded=0;" vertex="1" parent="1">
          <mxGeometry x="-2309" y="377.25" width="100" height="30" as="geometry" />
        </mxCell>
        <mxCell id="YBqSXtyDXEX9drz1hpcT-71" value="" style="edgeStyle=none;orthogonalLoop=1;jettySize=auto;html=1;rounded=0;" edge="1" parent="1">
          <mxGeometry width="80" relative="1" as="geometry">
            <mxPoint x="-2240" y="402.25" as="sourcePoint" />
            <mxPoint x="-2220" y="402.25" as="targetPoint" />
            <Array as="points" />
          </mxGeometry>
        </mxCell>
        <mxCell id="YBqSXtyDXEX9drz1hpcT-72" value="ifid_ir[rt](Rtc)" style="text;html=1;resizable=0;autosize=1;align=center;verticalAlign=middle;points=[];fillColor=none;strokeColor=none;rounded=0;" vertex="1" parent="1">
          <mxGeometry x="-2305" y="406.25" width="90" height="30" as="geometry" />
        </mxCell>
        <mxCell id="YBqSXtyDXEX9drz1hpcT-73" value="" style="edgeStyle=none;orthogonalLoop=1;jettySize=auto;html=1;rounded=0;" edge="1" parent="1">
          <mxGeometry width="80" relative="1" as="geometry">
            <mxPoint x="-2241" y="431.25" as="sourcePoint" />
            <mxPoint x="-2221" y="431.25" as="targetPoint" />
            <Array as="points" />
          </mxGeometry>
        </mxCell>
        <mxCell id="YBqSXtyDXEX9drz1hpcT-74" value="mux_addr_out" style="text;html=1;resizable=0;autosize=1;align=center;verticalAlign=middle;points=[];fillColor=none;strokeColor=none;rounded=0;" vertex="1" parent="1">
          <mxGeometry x="-2316" y="437.25" width="100" height="30" as="geometry" />
        </mxCell>
        <mxCell id="YBqSXtyDXEX9drz1hpcT-75" value="" style="edgeStyle=none;orthogonalLoop=1;jettySize=auto;html=1;rounded=0;" edge="1" parent="1">
          <mxGeometry width="80" relative="1" as="geometry">
            <mxPoint x="-2241" y="461.25" as="sourcePoint" />
            <mxPoint x="-2221" y="461.25" as="targetPoint" />
            <Array as="points" />
          </mxGeometry>
        </mxCell>
        <mxCell id="YBqSXtyDXEX9drz1hpcT-76" value="mux_data_out" style="text;html=1;resizable=0;autosize=1;align=center;verticalAlign=middle;points=[];fillColor=none;strokeColor=none;rounded=0;" vertex="1" parent="1">
          <mxGeometry x="-2314" y="467.25" width="100" height="30" as="geometry" />
        </mxCell>
        <mxCell id="YBqSXtyDXEX9drz1hpcT-77" value="" style="edgeStyle=none;orthogonalLoop=1;jettySize=auto;html=1;rounded=0;" edge="1" parent="1">
          <mxGeometry width="80" relative="1" as="geometry">
            <mxPoint x="-2241" y="492.25" as="sourcePoint" />
            <mxPoint x="-2221" y="492.25" as="targetPoint" />
            <Array as="points" />
          </mxGeometry>
        </mxCell>
        <mxCell id="YBqSXtyDXEX9drz1hpcT-78" value="rf_data1(Rs)" style="text;html=1;resizable=0;autosize=1;align=center;verticalAlign=middle;points=[];fillColor=none;strokeColor=none;rounded=0;" vertex="1" parent="1">
          <mxGeometry x="-2141" y="388.25" width="90" height="30" as="geometry" />
        </mxCell>
        <mxCell id="YBqSXtyDXEX9drz1hpcT-79" value="" style="edgeStyle=none;orthogonalLoop=1;jettySize=auto;html=1;rounded=0;" edge="1" parent="1">
          <mxGeometry width="80" relative="1" as="geometry">
            <mxPoint x="-2131" y="417.89" as="sourcePoint" />
            <mxPoint x="-2111" y="417.89" as="targetPoint" />
            <Array as="points" />
          </mxGeometry>
        </mxCell>
        <mxCell id="YBqSXtyDXEX9drz1hpcT-80" value="rf_data2(Rt)" style="text;html=1;resizable=0;autosize=1;align=center;verticalAlign=middle;points=[];fillColor=none;strokeColor=none;rounded=0;" vertex="1" parent="1">
          <mxGeometry x="-2142" y="440" width="90" height="30" as="geometry" />
        </mxCell>
        <mxCell id="YBqSXtyDXEX9drz1hpcT-81" value="" style="edgeStyle=none;orthogonalLoop=1;jettySize=auto;html=1;rounded=0;" edge="1" parent="1">
          <mxGeometry width="80" relative="1" as="geometry">
            <mxPoint x="-2131" y="467.25" as="sourcePoint" />
            <mxPoint x="-2111" y="467.25" as="targetPoint" />
            <Array as="points" />
          </mxGeometry>
        </mxCell>
        <mxCell id="YBqSXtyDXEX9drz1hpcT-82" value="EXT16" style="rounded=0;whiteSpace=wrap;html=1;fontSize=13;" vertex="1" parent="1">
          <mxGeometry x="-2012.5" y="190" width="51" height="35" as="geometry" />
        </mxCell>
        <mxCell id="YBqSXtyDXEX9drz1hpcT-83" value="" style="edgeStyle=none;orthogonalLoop=1;jettySize=auto;html=1;rounded=0;" edge="1" parent="1">
          <mxGeometry width="80" relative="1" as="geometry">
            <mxPoint x="-1961.5" y="207.5" as="sourcePoint" />
            <mxPoint x="-1941.5" y="207.5" as="targetPoint" />
            <Array as="points" />
          </mxGeometry>
        </mxCell>
        <mxCell id="YBqSXtyDXEX9drz1hpcT-84" value="ext16_out" style="text;html=1;resizable=0;autosize=1;align=center;verticalAlign=middle;points=[];fillColor=none;strokeColor=none;rounded=0;" vertex="1" parent="1">
          <mxGeometry x="-1969.5" y="182.5" width="80" height="30" as="geometry" />
        </mxCell>
        <mxCell id="YBqSXtyDXEX9drz1hpcT-85" value="" style="edgeStyle=none;orthogonalLoop=1;jettySize=auto;html=1;rounded=0;" edge="1" parent="1">
          <mxGeometry width="80" relative="1" as="geometry">
            <mxPoint x="-2032.5" y="207.3499999999999" as="sourcePoint" />
            <mxPoint x="-2012.5" y="207.3499999999999" as="targetPoint" />
            <Array as="points" />
          </mxGeometry>
        </mxCell>
        <mxCell id="YBqSXtyDXEX9drz1hpcT-86" value="ifid_ir[imm]" style="text;html=1;resizable=0;autosize=1;align=center;verticalAlign=middle;points=[];fillColor=none;strokeColor=none;rounded=0;" vertex="1" parent="1">
          <mxGeometry x="-2098.5" y="182.5" width="80" height="30" as="geometry" />
        </mxCell>
        <mxCell id="YBqSXtyDXEX9drz1hpcT-87" value="EXT5" style="rounded=0;whiteSpace=wrap;html=1;fontSize=13;" vertex="1" parent="1">
          <mxGeometry x="-2012.5" y="235" width="51" height="35" as="geometry" />
        </mxCell>
        <mxCell id="YBqSXtyDXEX9drz1hpcT-88" value="" style="edgeStyle=none;orthogonalLoop=1;jettySize=auto;html=1;rounded=0;" edge="1" parent="1">
          <mxGeometry width="80" relative="1" as="geometry">
            <mxPoint x="-1961.5" y="252.5" as="sourcePoint" />
            <mxPoint x="-1941.5" y="252.5" as="targetPoint" />
            <Array as="points" />
          </mxGeometry>
        </mxCell>
        <mxCell id="YBqSXtyDXEX9drz1hpcT-89" value="ext5_out" style="text;html=1;resizable=0;autosize=1;align=center;verticalAlign=middle;points=[];fillColor=none;strokeColor=none;rounded=0;" vertex="1" parent="1">
          <mxGeometry x="-1966.5" y="225" width="70" height="30" as="geometry" />
        </mxCell>
        <mxCell id="YBqSXtyDXEX9drz1hpcT-90" value="" style="edgeStyle=none;orthogonalLoop=1;jettySize=auto;html=1;rounded=0;" edge="1" parent="1">
          <mxGeometry width="80" relative="1" as="geometry">
            <mxPoint x="-2032.5" y="252.3499999999999" as="sourcePoint" />
            <mxPoint x="-2012.5" y="252.3499999999999" as="targetPoint" />
            <Array as="points" />
          </mxGeometry>
        </mxCell>
        <mxCell id="YBqSXtyDXEX9drz1hpcT-91" value="ifid_ir[sa]" style="text;html=1;resizable=0;autosize=1;align=center;verticalAlign=middle;points=[];fillColor=none;strokeColor=none;rounded=0;" vertex="1" parent="1">
          <mxGeometry x="-2082.5" y="227.5" width="70" height="30" as="geometry" />
        </mxCell>
        <mxCell id="YBqSXtyDXEX9drz1hpcT-92" value="MUX&lt;br&gt;_ALUA" style="rounded=0;whiteSpace=wrap;html=1;" vertex="1" parent="1">
          <mxGeometry x="-2012" y="275" width="54" height="155" as="geometry" />
        </mxCell>
        <mxCell id="YBqSXtyDXEX9drz1hpcT-93" value="" style="edgeStyle=none;orthogonalLoop=1;jettySize=auto;html=1;rounded=0;" edge="1" parent="1">
          <mxGeometry width="80" relative="1" as="geometry">
            <mxPoint x="-2033" y="289.56999999999994" as="sourcePoint" />
            <mxPoint x="-2013" y="289.56999999999994" as="targetPoint" />
            <Array as="points" />
          </mxGeometry>
        </mxCell>
        <mxCell id="YBqSXtyDXEX9drz1hpcT-94" value="hi_out" style="text;html=1;resizable=0;autosize=1;align=center;verticalAlign=middle;points=[];fillColor=none;strokeColor=none;rounded=0;" vertex="1" parent="1">
          <mxGeometry x="-2082" y="325" width="60" height="30" as="geometry" />
        </mxCell>
        <mxCell id="YBqSXtyDXEX9drz1hpcT-95" value="" style="edgeStyle=none;orthogonalLoop=1;jettySize=auto;html=1;rounded=0;" edge="1" parent="1">
          <mxGeometry width="80" relative="1" as="geometry">
            <mxPoint x="-2032" y="309.56999999999994" as="sourcePoint" />
            <mxPoint x="-2012" y="309.56999999999994" as="targetPoint" />
            <Array as="points" />
          </mxGeometry>
        </mxCell>
        <mxCell id="YBqSXtyDXEX9drz1hpcT-96" value="lo_out" style="text;html=1;resizable=0;autosize=1;align=center;verticalAlign=middle;points=[];fillColor=none;strokeColor=none;rounded=0;" vertex="1" parent="1">
          <mxGeometry x="-2082" y="345" width="60" height="30" as="geometry" />
        </mxCell>
        <mxCell id="YBqSXtyDXEX9drz1hpcT-97" value="" style="edgeStyle=none;orthogonalLoop=1;jettySize=auto;html=1;rounded=0;" edge="1" parent="1">
          <mxGeometry width="80" relative="1" as="geometry">
            <mxPoint x="-2032" y="329.56999999999994" as="sourcePoint" />
            <mxPoint x="-2012" y="329.56999999999994" as="targetPoint" />
            <Array as="points" />
          </mxGeometry>
        </mxCell>
        <mxCell id="YBqSXtyDXEX9drz1hpcT-98" value="cp0_data" style="text;html=1;resizable=0;autosize=1;align=center;verticalAlign=middle;points=[];fillColor=none;strokeColor=none;rounded=0;" vertex="1" parent="1">
          <mxGeometry x="-2089" y="365" width="70" height="30" as="geometry" />
        </mxCell>
        <mxCell id="YBqSXtyDXEX9drz1hpcT-99" value="" style="edgeStyle=none;orthogonalLoop=1;jettySize=auto;html=1;rounded=0;" edge="1" parent="1">
          <mxGeometry width="80" relative="1" as="geometry">
            <mxPoint x="-2033" y="349.56999999999994" as="sourcePoint" />
            <mxPoint x="-2013" y="349.56999999999994" as="targetPoint" />
            <Array as="points" />
          </mxGeometry>
        </mxCell>
        <mxCell id="YBqSXtyDXEX9drz1hpcT-100" value="ifid_npc" style="text;html=1;resizable=0;autosize=1;align=center;verticalAlign=middle;points=[];fillColor=none;strokeColor=none;rounded=0;" vertex="1" parent="1">
          <mxGeometry x="-2083.5" y="310" width="60" height="30" as="geometry" />
        </mxCell>
        <mxCell id="YBqSXtyDXEX9drz1hpcT-101" value="" style="edgeStyle=none;orthogonalLoop=1;jettySize=auto;html=1;rounded=0;" edge="1" parent="1">
          <mxGeometry width="80" relative="1" as="geometry">
            <mxPoint x="-2033" y="368.56999999999994" as="sourcePoint" />
            <mxPoint x="-2013" y="368.56999999999994" as="targetPoint" />
            <Array as="points" />
          </mxGeometry>
        </mxCell>
        <mxCell id="YBqSXtyDXEX9drz1hpcT-102" value="rf_data1" style="text;html=1;resizable=0;autosize=1;align=center;verticalAlign=middle;points=[];fillColor=none;strokeColor=none;rounded=0;" vertex="1" parent="1">
          <mxGeometry x="-2084" y="267.5" width="70" height="30" as="geometry" />
        </mxCell>
        <mxCell id="YBqSXtyDXEX9drz1hpcT-103" value="" style="edgeStyle=none;orthogonalLoop=1;jettySize=auto;html=1;rounded=0;" edge="1" parent="1">
          <mxGeometry width="80" relative="1" as="geometry">
            <mxPoint x="-2033" y="389.56999999999994" as="sourcePoint" />
            <mxPoint x="-2013" y="389.56999999999994" as="targetPoint" />
            <Array as="points" />
          </mxGeometry>
        </mxCell>
        <mxCell id="YBqSXtyDXEX9drz1hpcT-104" value="ext5_out" style="text;html=1;resizable=0;autosize=1;align=center;verticalAlign=middle;points=[];fillColor=none;strokeColor=none;rounded=0;" vertex="1" parent="1">
          <mxGeometry x="-2088.5" y="290" width="70" height="30" as="geometry" />
        </mxCell>
        <mxCell id="YBqSXtyDXEX9drz1hpcT-105" value="" style="edgeStyle=none;orthogonalLoop=1;jettySize=auto;html=1;rounded=0;" edge="1" parent="1">
          <mxGeometry width="80" relative="1" as="geometry">
            <mxPoint x="-1958" y="350" as="sourcePoint" />
            <mxPoint x="-1938" y="350" as="targetPoint" />
            <Array as="points" />
          </mxGeometry>
        </mxCell>
        <mxCell id="YBqSXtyDXEX9drz1hpcT-106" value="mux_alua_out" style="text;html=1;resizable=0;autosize=1;align=center;verticalAlign=middle;points=[];fillColor=none;strokeColor=none;rounded=0;" vertex="1" parent="1">
          <mxGeometry x="-1967" y="320" width="100" height="30" as="geometry" />
        </mxCell>
        <mxCell id="YBqSXtyDXEX9drz1hpcT-107" value="MUX&lt;br&gt;_ALUB" style="rounded=0;whiteSpace=wrap;html=1;" vertex="1" parent="1">
          <mxGeometry x="-2013" y="444" width="55" height="96" as="geometry" />
        </mxCell>
        <mxCell id="YBqSXtyDXEX9drz1hpcT-108" value="" style="edgeStyle=none;orthogonalLoop=1;jettySize=auto;html=1;rounded=0;" edge="1" parent="1">
          <mxGeometry width="80" relative="1" as="geometry">
            <mxPoint x="-2032" y="469.56999999999994" as="sourcePoint" />
            <mxPoint x="-2012" y="469.56999999999994" as="targetPoint" />
            <Array as="points" />
          </mxGeometry>
        </mxCell>
        <mxCell id="YBqSXtyDXEX9drz1hpcT-109" value="rf_data2" style="text;html=1;resizable=0;autosize=1;align=center;verticalAlign=middle;points=[];fillColor=none;strokeColor=none;rounded=0;" vertex="1" parent="1">
          <mxGeometry x="-2082" y="450" width="70" height="30" as="geometry" />
        </mxCell>
        <mxCell id="YBqSXtyDXEX9drz1hpcT-110" value="" style="edgeStyle=none;orthogonalLoop=1;jettySize=auto;html=1;rounded=0;" edge="1" parent="1">
          <mxGeometry width="80" relative="1" as="geometry">
            <mxPoint x="-2033" y="491.81999999999994" as="sourcePoint" />
            <mxPoint x="-2013" y="491.81999999999994" as="targetPoint" />
            <Array as="points" />
          </mxGeometry>
        </mxCell>
        <mxCell id="YBqSXtyDXEX9drz1hpcT-111" value="ext16_out" style="text;html=1;resizable=0;autosize=1;align=center;verticalAlign=middle;points=[];fillColor=none;strokeColor=none;rounded=0;" vertex="1" parent="1">
          <mxGeometry x="-2099" y="470" width="80" height="30" as="geometry" />
        </mxCell>
        <mxCell id="YBqSXtyDXEX9drz1hpcT-112" value="" style="edgeStyle=none;orthogonalLoop=1;jettySize=auto;html=1;rounded=0;" edge="1" parent="1">
          <mxGeometry width="80" relative="1" as="geometry">
            <mxPoint x="-2032" y="517.5699999999999" as="sourcePoint" />
            <mxPoint x="-2012" y="517.5699999999999" as="targetPoint" />
            <Array as="points" />
          </mxGeometry>
        </mxCell>
        <mxCell id="YBqSXtyDXEX9drz1hpcT-113" value="4" style="text;html=1;resizable=0;autosize=1;align=center;verticalAlign=middle;points=[];fillColor=none;strokeColor=none;rounded=0;" vertex="1" parent="1">
          <mxGeometry x="-2054" y="500" width="30" height="30" as="geometry" />
        </mxCell>
        <mxCell id="YBqSXtyDXEX9drz1hpcT-114" value="" style="edgeStyle=none;orthogonalLoop=1;jettySize=auto;html=1;rounded=0;" edge="1" parent="1">
          <mxGeometry width="80" relative="1" as="geometry">
            <mxPoint x="-1958" y="489.8799999999999" as="sourcePoint" />
            <mxPoint x="-1938" y="489.8799999999999" as="targetPoint" />
            <Array as="points" />
          </mxGeometry>
        </mxCell>
        <mxCell id="YBqSXtyDXEX9drz1hpcT-115" value="mux_alub_out" style="text;html=1;resizable=0;autosize=1;align=center;verticalAlign=middle;points=[];fillColor=none;strokeColor=none;rounded=0;" vertex="1" parent="1">
          <mxGeometry x="-1967" y="459.88" width="100" height="30" as="geometry" />
        </mxCell>
        <mxCell id="YBqSXtyDXEX9drz1hpcT-116" value="&lt;b&gt;&lt;font style=&quot;font-size: 13px;&quot;&gt;ID&lt;/font&gt;&lt;/b&gt;" style="text;html=1;resizable=0;autosize=1;align=center;verticalAlign=middle;points=[];fillColor=none;strokeColor=none;rounded=0;" vertex="1" parent="1">
          <mxGeometry x="-2294" y="55" width="40" height="30" as="geometry" />
        </mxCell>
        <mxCell id="YBqSXtyDXEX9drz1hpcT-117" value="" style="rounded=0;whiteSpace=wrap;html=1;fontSize=13;" vertex="1" parent="1">
          <mxGeometry x="-1830" y="85" width="90" height="460" as="geometry" />
        </mxCell>
        <mxCell id="YBqSXtyDXEX9drz1hpcT-118" value="&lt;b&gt;&lt;font style=&quot;font-size: 13px;&quot;&gt;ID/EX&lt;/font&gt;&lt;/b&gt;" style="text;html=1;resizable=0;autosize=1;align=center;verticalAlign=middle;points=[];fillColor=none;strokeColor=none;rounded=0;" vertex="1" parent="1">
          <mxGeometry x="-1835" y="55" width="60" height="30" as="geometry" />
        </mxCell>
        <mxCell id="YBqSXtyDXEX9drz1hpcT-119" value="&lt;font style=&quot;font-size: 12px;&quot;&gt;ALUA&lt;/font&gt;" style="rounded=0;whiteSpace=wrap;html=1;fontSize=13;" vertex="1" parent="1">
          <mxGeometry x="-1799" y="167.5" width="30" height="35" as="geometry" />
        </mxCell>
        <mxCell id="YBqSXtyDXEX9drz1hpcT-120" value="" style="edgeStyle=none;orthogonalLoop=1;jettySize=auto;html=1;rounded=0;" edge="1" parent="1">
          <mxGeometry width="80" relative="1" as="geometry">
            <mxPoint x="-1819" y="187.39999999999998" as="sourcePoint" />
            <mxPoint x="-1799" y="187.39999999999998" as="targetPoint" />
            <Array as="points" />
          </mxGeometry>
        </mxCell>
        <mxCell id="YBqSXtyDXEX9drz1hpcT-121" value="mux_alua_out" style="text;html=1;resizable=0;autosize=1;align=center;verticalAlign=middle;points=[];fillColor=none;strokeColor=none;rounded=0;" vertex="1" parent="1">
          <mxGeometry x="-1894" y="162.5" width="100" height="30" as="geometry" />
        </mxCell>
        <mxCell id="YBqSXtyDXEX9drz1hpcT-122" value="" style="edgeStyle=none;orthogonalLoop=1;jettySize=auto;html=1;rounded=0;" edge="1" parent="1">
          <mxGeometry width="80" relative="1" as="geometry">
            <mxPoint x="-1769" y="187.39999999999998" as="sourcePoint" />
            <mxPoint x="-1749" y="187.39999999999998" as="targetPoint" />
            <Array as="points" />
          </mxGeometry>
        </mxCell>
        <mxCell id="YBqSXtyDXEX9drz1hpcT-123" value="idex_alua" style="text;html=1;resizable=0;autosize=1;align=center;verticalAlign=middle;points=[];fillColor=none;strokeColor=none;rounded=0;" vertex="1" parent="1">
          <mxGeometry x="-1774" y="162.5" width="70" height="30" as="geometry" />
        </mxCell>
        <mxCell id="YBqSXtyDXEX9drz1hpcT-124" value="&lt;font style=&quot;font-size: 12px;&quot;&gt;ALUB&lt;/font&gt;" style="rounded=0;whiteSpace=wrap;html=1;fontSize=13;" vertex="1" parent="1">
          <mxGeometry x="-1799" y="235" width="30" height="35" as="geometry" />
        </mxCell>
        <mxCell id="YBqSXtyDXEX9drz1hpcT-125" value="" style="edgeStyle=none;orthogonalLoop=1;jettySize=auto;html=1;rounded=0;" edge="1" parent="1">
          <mxGeometry width="80" relative="1" as="geometry">
            <mxPoint x="-1819" y="254.89999999999998" as="sourcePoint" />
            <mxPoint x="-1799" y="254.89999999999998" as="targetPoint" />
            <Array as="points" />
          </mxGeometry>
        </mxCell>
        <mxCell id="YBqSXtyDXEX9drz1hpcT-126" value="" style="edgeStyle=none;orthogonalLoop=1;jettySize=auto;html=1;rounded=0;" edge="1" parent="1">
          <mxGeometry width="80" relative="1" as="geometry">
            <mxPoint x="-1769" y="254.89999999999998" as="sourcePoint" />
            <mxPoint x="-1749" y="254.89999999999998" as="targetPoint" />
            <Array as="points" />
          </mxGeometry>
        </mxCell>
        <mxCell id="YBqSXtyDXEX9drz1hpcT-127" value="idex_alub" style="text;html=1;resizable=0;autosize=1;align=center;verticalAlign=middle;points=[];fillColor=none;strokeColor=none;rounded=0;" vertex="1" parent="1">
          <mxGeometry x="-1774" y="230" width="70" height="30" as="geometry" />
        </mxCell>
        <mxCell id="YBqSXtyDXEX9drz1hpcT-128" value="RDATA" style="rounded=0;whiteSpace=wrap;html=1;fontSize=13;" vertex="1" parent="1">
          <mxGeometry x="-1805.5" y="300" width="41" height="35" as="geometry" />
        </mxCell>
        <mxCell id="YBqSXtyDXEX9drz1hpcT-129" value="" style="edgeStyle=none;orthogonalLoop=1;jettySize=auto;html=1;rounded=0;" edge="1" parent="1">
          <mxGeometry width="80" relative="1" as="geometry">
            <mxPoint x="-1825.5" y="320" as="sourcePoint" />
            <mxPoint x="-1805.5" y="320" as="targetPoint" />
            <Array as="points" />
          </mxGeometry>
        </mxCell>
        <mxCell id="YBqSXtyDXEX9drz1hpcT-130" value="rfdata2" style="text;html=1;resizable=0;autosize=1;align=center;verticalAlign=middle;points=[];fillColor=none;strokeColor=none;rounded=0;" vertex="1" parent="1">
          <mxGeometry x="-1874" y="295" width="60" height="30" as="geometry" />
        </mxCell>
        <mxCell id="YBqSXtyDXEX9drz1hpcT-131" value="" style="edgeStyle=none;orthogonalLoop=1;jettySize=auto;html=1;rounded=0;" edge="1" parent="1">
          <mxGeometry width="80" relative="1" as="geometry">
            <mxPoint x="-1764.5" y="320" as="sourcePoint" />
            <mxPoint x="-1744.5" y="320" as="targetPoint" />
            <Array as="points" />
          </mxGeometry>
        </mxCell>
        <mxCell id="YBqSXtyDXEX9drz1hpcT-132" value="idex_rdata" style="text;html=1;resizable=0;autosize=1;align=center;verticalAlign=middle;points=[];fillColor=none;strokeColor=none;rounded=0;" vertex="1" parent="1">
          <mxGeometry x="-1774" y="295" width="80" height="30" as="geometry" />
        </mxCell>
        <mxCell id="YBqSXtyDXEX9drz1hpcT-133" value="IR" style="rounded=0;whiteSpace=wrap;html=1;fontSize=13;" vertex="1" parent="1">
          <mxGeometry x="-1799" y="370" width="30" height="35" as="geometry" />
        </mxCell>
        <mxCell id="YBqSXtyDXEX9drz1hpcT-134" value="" style="edgeStyle=none;orthogonalLoop=1;jettySize=auto;html=1;rounded=0;" edge="1" parent="1">
          <mxGeometry width="80" relative="1" as="geometry">
            <mxPoint x="-1819" y="389.9" as="sourcePoint" />
            <mxPoint x="-1799" y="389.9" as="targetPoint" />
            <Array as="points" />
          </mxGeometry>
        </mxCell>
        <mxCell id="YBqSXtyDXEX9drz1hpcT-135" value="ifid_ir" style="text;html=1;resizable=0;autosize=1;align=center;verticalAlign=middle;points=[];fillColor=none;strokeColor=none;rounded=0;" vertex="1" parent="1">
          <mxGeometry x="-1859" y="365" width="50" height="30" as="geometry" />
        </mxCell>
        <mxCell id="YBqSXtyDXEX9drz1hpcT-136" value="" style="edgeStyle=none;orthogonalLoop=1;jettySize=auto;html=1;rounded=0;" edge="1" parent="1">
          <mxGeometry width="80" relative="1" as="geometry">
            <mxPoint x="-1769" y="389.9" as="sourcePoint" />
            <mxPoint x="-1749" y="389.9" as="targetPoint" />
            <Array as="points" />
          </mxGeometry>
        </mxCell>
        <mxCell id="YBqSXtyDXEX9drz1hpcT-137" value="idex_ir" style="text;html=1;resizable=0;autosize=1;align=center;verticalAlign=middle;points=[];fillColor=none;strokeColor=none;rounded=0;" vertex="1" parent="1">
          <mxGeometry x="-1774" y="365" width="60" height="30" as="geometry" />
        </mxCell>
        <mxCell id="YBqSXtyDXEX9drz1hpcT-138" value="mux_alub_out" style="text;html=1;resizable=0;autosize=1;align=center;verticalAlign=middle;points=[];fillColor=none;strokeColor=none;rounded=0;" vertex="1" parent="1">
          <mxGeometry x="-1900" y="235" width="100" height="30" as="geometry" />
        </mxCell>
        <mxCell id="YBqSXtyDXEX9drz1hpcT-139" value="" style="rounded=0;whiteSpace=wrap;html=1;" vertex="1" parent="1">
          <mxGeometry x="-2690" y="610" width="200" height="560" as="geometry" />
        </mxCell>
        <mxCell id="YBqSXtyDXEX9drz1hpcT-140" value="&lt;b&gt;&lt;font style=&quot;font-size: 13px;&quot;&gt;EX&lt;/font&gt;&lt;/b&gt;" style="text;html=1;resizable=0;autosize=1;align=center;verticalAlign=middle;points=[];fillColor=none;strokeColor=none;rounded=0;" vertex="1" parent="1">
          <mxGeometry x="-2690" y="570" width="40" height="30" as="geometry" />
        </mxCell>
        <mxCell id="YBqSXtyDXEX9drz1hpcT-141" value="DIV" style="rounded=0;whiteSpace=wrap;html=1;fontSize=12;" vertex="1" parent="1">
          <mxGeometry x="-2620" y="620" width="60" height="60" as="geometry" />
        </mxCell>
        <mxCell id="YBqSXtyDXEX9drz1hpcT-142" value="" style="edgeStyle=none;orthogonalLoop=1;jettySize=auto;html=1;rounded=0;" edge="1" parent="1">
          <mxGeometry width="80" relative="1" as="geometry">
            <mxPoint x="-2640" y="634.9000000000001" as="sourcePoint" />
            <mxPoint x="-2620" y="634.9000000000001" as="targetPoint" />
            <Array as="points" />
          </mxGeometry>
        </mxCell>
        <mxCell id="YBqSXtyDXEX9drz1hpcT-143" value="idex_alua" style="text;html=1;resizable=0;autosize=1;align=center;verticalAlign=middle;points=[];fillColor=none;strokeColor=none;rounded=0;" vertex="1" parent="1">
          <mxGeometry x="-2690" y="610" width="70" height="30" as="geometry" />
        </mxCell>
        <mxCell id="YBqSXtyDXEX9drz1hpcT-144" value="" style="edgeStyle=none;orthogonalLoop=1;jettySize=auto;html=1;rounded=0;" edge="1" parent="1">
          <mxGeometry width="80" relative="1" as="geometry">
            <mxPoint x="-2640" y="674.9000000000001" as="sourcePoint" />
            <mxPoint x="-2620" y="674.9000000000001" as="targetPoint" />
            <Array as="points" />
          </mxGeometry>
        </mxCell>
        <mxCell id="YBqSXtyDXEX9drz1hpcT-145" value="idex_alub" style="text;html=1;resizable=0;autosize=1;align=center;verticalAlign=middle;points=[];fillColor=none;strokeColor=none;rounded=0;" vertex="1" parent="1">
          <mxGeometry x="-2690" y="650" width="70" height="30" as="geometry" />
        </mxCell>
        <mxCell id="YBqSXtyDXEX9drz1hpcT-146" value="" style="edgeStyle=none;orthogonalLoop=1;jettySize=auto;html=1;rounded=0;" edge="1" parent="1">
          <mxGeometry width="80" relative="1" as="geometry">
            <mxPoint x="-2560" y="640" as="sourcePoint" />
            <mxPoint x="-2540" y="640" as="targetPoint" />
            <Array as="points" />
          </mxGeometry>
        </mxCell>
        <mxCell id="YBqSXtyDXEX9drz1hpcT-147" value="div_q_out" style="text;html=1;resizable=0;autosize=1;align=center;verticalAlign=middle;points=[];fillColor=none;strokeColor=none;rounded=0;" vertex="1" parent="1">
          <mxGeometry x="-2565" y="610" width="80" height="30" as="geometry" />
        </mxCell>
        <mxCell id="YBqSXtyDXEX9drz1hpcT-148" value="DIVU" style="rounded=0;whiteSpace=wrap;html=1;fontSize=12;" vertex="1" parent="1">
          <mxGeometry x="-2620" y="700" width="60" height="60" as="geometry" />
        </mxCell>
        <mxCell id="YBqSXtyDXEX9drz1hpcT-149" value="" style="edgeStyle=none;orthogonalLoop=1;jettySize=auto;html=1;rounded=0;" edge="1" parent="1">
          <mxGeometry width="80" relative="1" as="geometry">
            <mxPoint x="-2640" y="714.9000000000001" as="sourcePoint" />
            <mxPoint x="-2620" y="714.9000000000001" as="targetPoint" />
            <Array as="points" />
          </mxGeometry>
        </mxCell>
        <mxCell id="YBqSXtyDXEX9drz1hpcT-150" value="idex_alua" style="text;html=1;resizable=0;autosize=1;align=center;verticalAlign=middle;points=[];fillColor=none;strokeColor=none;rounded=0;" vertex="1" parent="1">
          <mxGeometry x="-2690" y="690" width="70" height="30" as="geometry" />
        </mxCell>
        <mxCell id="YBqSXtyDXEX9drz1hpcT-151" value="" style="edgeStyle=none;orthogonalLoop=1;jettySize=auto;html=1;rounded=0;" edge="1" parent="1">
          <mxGeometry width="80" relative="1" as="geometry">
            <mxPoint x="-2640" y="754.9000000000001" as="sourcePoint" />
            <mxPoint x="-2620" y="754.9000000000001" as="targetPoint" />
            <Array as="points" />
          </mxGeometry>
        </mxCell>
        <mxCell id="YBqSXtyDXEX9drz1hpcT-152" value="idex_alub" style="text;html=1;resizable=0;autosize=1;align=center;verticalAlign=middle;points=[];fillColor=none;strokeColor=none;rounded=0;" vertex="1" parent="1">
          <mxGeometry x="-2690" y="730" width="70" height="30" as="geometry" />
        </mxCell>
        <mxCell id="YBqSXtyDXEX9drz1hpcT-153" value="" style="edgeStyle=none;orthogonalLoop=1;jettySize=auto;html=1;rounded=0;" edge="1" parent="1">
          <mxGeometry width="80" relative="1" as="geometry">
            <mxPoint x="-2560" y="740" as="sourcePoint" />
            <mxPoint x="-2540" y="740" as="targetPoint" />
            <Array as="points" />
          </mxGeometry>
        </mxCell>
        <mxCell id="YBqSXtyDXEX9drz1hpcT-154" value="divu_r_out" style="text;html=1;resizable=0;autosize=1;align=center;verticalAlign=middle;points=[];fillColor=none;strokeColor=none;rounded=0;" vertex="1" parent="1">
          <mxGeometry x="-2565" y="715" width="80" height="30" as="geometry" />
        </mxCell>
        <mxCell id="YBqSXtyDXEX9drz1hpcT-155" value="MUL" style="rounded=0;whiteSpace=wrap;html=1;fontSize=12;" vertex="1" parent="1">
          <mxGeometry x="-2620" y="780" width="60" height="60" as="geometry" />
        </mxCell>
        <mxCell id="YBqSXtyDXEX9drz1hpcT-156" value="" style="edgeStyle=none;orthogonalLoop=1;jettySize=auto;html=1;rounded=0;" edge="1" parent="1">
          <mxGeometry width="80" relative="1" as="geometry">
            <mxPoint x="-2640" y="794.9000000000001" as="sourcePoint" />
            <mxPoint x="-2620" y="794.9000000000001" as="targetPoint" />
            <Array as="points" />
          </mxGeometry>
        </mxCell>
        <mxCell id="YBqSXtyDXEX9drz1hpcT-157" value="idex_alua" style="text;html=1;resizable=0;autosize=1;align=center;verticalAlign=middle;points=[];fillColor=none;strokeColor=none;rounded=0;" vertex="1" parent="1">
          <mxGeometry x="-2690" y="770" width="70" height="30" as="geometry" />
        </mxCell>
        <mxCell id="YBqSXtyDXEX9drz1hpcT-158" value="" style="edgeStyle=none;orthogonalLoop=1;jettySize=auto;html=1;rounded=0;" edge="1" parent="1">
          <mxGeometry width="80" relative="1" as="geometry">
            <mxPoint x="-2640" y="834.9000000000001" as="sourcePoint" />
            <mxPoint x="-2620" y="834.9000000000001" as="targetPoint" />
            <Array as="points" />
          </mxGeometry>
        </mxCell>
        <mxCell id="YBqSXtyDXEX9drz1hpcT-159" value="idex_alub" style="text;html=1;resizable=0;autosize=1;align=center;verticalAlign=middle;points=[];fillColor=none;strokeColor=none;rounded=0;" vertex="1" parent="1">
          <mxGeometry x="-2690" y="810" width="70" height="30" as="geometry" />
        </mxCell>
        <mxCell id="YBqSXtyDXEX9drz1hpcT-160" value="" style="edgeStyle=none;orthogonalLoop=1;jettySize=auto;html=1;rounded=0;" edge="1" parent="1">
          <mxGeometry width="80" relative="1" as="geometry">
            <mxPoint x="-2560" y="810" as="sourcePoint" />
            <mxPoint x="-2540" y="810" as="targetPoint" />
            <Array as="points" />
          </mxGeometry>
        </mxCell>
        <mxCell id="YBqSXtyDXEX9drz1hpcT-161" value="mul_out" style="text;html=1;resizable=0;autosize=1;align=center;verticalAlign=middle;points=[];fillColor=none;strokeColor=none;rounded=0;" vertex="1" parent="1">
          <mxGeometry x="-2560" y="780" width="70" height="30" as="geometry" />
        </mxCell>
        <mxCell id="YBqSXtyDXEX9drz1hpcT-162" value="MULTU" style="rounded=0;whiteSpace=wrap;html=1;fontSize=12;" vertex="1" parent="1">
          <mxGeometry x="-2617.5" y="860" width="60" height="60" as="geometry" />
        </mxCell>
        <mxCell id="YBqSXtyDXEX9drz1hpcT-163" value="" style="edgeStyle=none;orthogonalLoop=1;jettySize=auto;html=1;rounded=0;" edge="1" parent="1">
          <mxGeometry width="80" relative="1" as="geometry">
            <mxPoint x="-2637.5" y="874.9000000000001" as="sourcePoint" />
            <mxPoint x="-2617.5" y="874.9000000000001" as="targetPoint" />
            <Array as="points" />
          </mxGeometry>
        </mxCell>
        <mxCell id="YBqSXtyDXEX9drz1hpcT-164" value="idex_alua" style="text;html=1;resizable=0;autosize=1;align=center;verticalAlign=middle;points=[];fillColor=none;strokeColor=none;rounded=0;" vertex="1" parent="1">
          <mxGeometry x="-2687.5" y="850" width="70" height="30" as="geometry" />
        </mxCell>
        <mxCell id="YBqSXtyDXEX9drz1hpcT-165" value="" style="edgeStyle=none;orthogonalLoop=1;jettySize=auto;html=1;rounded=0;" edge="1" parent="1">
          <mxGeometry width="80" relative="1" as="geometry">
            <mxPoint x="-2637.5" y="914.9000000000001" as="sourcePoint" />
            <mxPoint x="-2617.5" y="914.9000000000001" as="targetPoint" />
            <Array as="points" />
          </mxGeometry>
        </mxCell>
        <mxCell id="YBqSXtyDXEX9drz1hpcT-166" value="idex_alub" style="text;html=1;resizable=0;autosize=1;align=center;verticalAlign=middle;points=[];fillColor=none;strokeColor=none;rounded=0;" vertex="1" parent="1">
          <mxGeometry x="-2687.5" y="890" width="70" height="30" as="geometry" />
        </mxCell>
        <mxCell id="YBqSXtyDXEX9drz1hpcT-167" value="" style="edgeStyle=none;orthogonalLoop=1;jettySize=auto;html=1;rounded=0;" edge="1" parent="1">
          <mxGeometry width="80" relative="1" as="geometry">
            <mxPoint x="-2557.5" y="890" as="sourcePoint" />
            <mxPoint x="-2537.5" y="890" as="targetPoint" />
            <Array as="points" />
          </mxGeometry>
        </mxCell>
        <mxCell id="YBqSXtyDXEX9drz1hpcT-168" value="multu_out" style="text;html=1;resizable=0;autosize=1;align=center;verticalAlign=middle;points=[];fillColor=none;strokeColor=none;rounded=0;" vertex="1" parent="1">
          <mxGeometry x="-2562.5" y="860" width="80" height="30" as="geometry" />
        </mxCell>
        <mxCell id="YBqSXtyDXEX9drz1hpcT-169" value="ALU" style="rounded=0;whiteSpace=wrap;html=1;fontSize=12;" vertex="1" parent="1">
          <mxGeometry x="-2617.5" y="950" width="60" height="60" as="geometry" />
        </mxCell>
        <mxCell id="YBqSXtyDXEX9drz1hpcT-170" value="" style="edgeStyle=none;orthogonalLoop=1;jettySize=auto;html=1;rounded=0;" edge="1" parent="1">
          <mxGeometry width="80" relative="1" as="geometry">
            <mxPoint x="-2637.5" y="964.9000000000001" as="sourcePoint" />
            <mxPoint x="-2617.5" y="964.9000000000001" as="targetPoint" />
            <Array as="points" />
          </mxGeometry>
        </mxCell>
        <mxCell id="YBqSXtyDXEX9drz1hpcT-171" value="idex_alua" style="text;html=1;resizable=0;autosize=1;align=center;verticalAlign=middle;points=[];fillColor=none;strokeColor=none;rounded=0;" vertex="1" parent="1">
          <mxGeometry x="-2687.5" y="940" width="70" height="30" as="geometry" />
        </mxCell>
        <mxCell id="YBqSXtyDXEX9drz1hpcT-172" value="" style="edgeStyle=none;orthogonalLoop=1;jettySize=auto;html=1;rounded=0;" edge="1" parent="1">
          <mxGeometry width="80" relative="1" as="geometry">
            <mxPoint x="-2637.5" y="1004.9000000000001" as="sourcePoint" />
            <mxPoint x="-2617.5" y="1004.9000000000001" as="targetPoint" />
            <Array as="points" />
          </mxGeometry>
        </mxCell>
        <mxCell id="YBqSXtyDXEX9drz1hpcT-173" value="idex_alub" style="text;html=1;resizable=0;autosize=1;align=center;verticalAlign=middle;points=[];fillColor=none;strokeColor=none;rounded=0;" vertex="1" parent="1">
          <mxGeometry x="-2687.5" y="980" width="70" height="30" as="geometry" />
        </mxCell>
        <mxCell id="YBqSXtyDXEX9drz1hpcT-174" value="" style="edgeStyle=none;orthogonalLoop=1;jettySize=auto;html=1;rounded=0;" edge="1" parent="1">
          <mxGeometry width="80" relative="1" as="geometry">
            <mxPoint x="-2557.5" y="980" as="sourcePoint" />
            <mxPoint x="-2537.5" y="980" as="targetPoint" />
            <Array as="points" />
          </mxGeometry>
        </mxCell>
        <mxCell id="YBqSXtyDXEX9drz1hpcT-175" value="alu_out" style="text;html=1;resizable=0;autosize=1;align=center;verticalAlign=middle;points=[];fillColor=none;strokeColor=none;rounded=0;" vertex="1" parent="1">
          <mxGeometry x="-2552.5" y="950" width="60" height="30" as="geometry" />
        </mxCell>
        <mxCell id="YBqSXtyDXEX9drz1hpcT-176" value="" style="rounded=0;whiteSpace=wrap;html=1;fontSize=13;" vertex="1" parent="1">
          <mxGeometry x="-2440" y="600" width="90" height="570" as="geometry" />
        </mxCell>
        <mxCell id="YBqSXtyDXEX9drz1hpcT-177" value="&lt;b&gt;&lt;font style=&quot;font-size: 13px;&quot;&gt;EX/MEM&lt;/font&gt;&lt;/b&gt;" style="text;html=1;resizable=0;autosize=1;align=center;verticalAlign=middle;points=[];fillColor=none;strokeColor=none;rounded=0;" vertex="1" parent="1">
          <mxGeometry x="-2450" y="570" width="70" height="30" as="geometry" />
        </mxCell>
        <mxCell id="YBqSXtyDXEX9drz1hpcT-178" value="Q" style="rounded=0;whiteSpace=wrap;html=1;fontSize=13;" vertex="1" parent="1">
          <mxGeometry x="-2410" y="620" width="30" height="35" as="geometry" />
        </mxCell>
        <mxCell id="YBqSXtyDXEX9drz1hpcT-179" value="" style="edgeStyle=none;orthogonalLoop=1;jettySize=auto;html=1;rounded=0;" edge="1" parent="1">
          <mxGeometry width="80" relative="1" as="geometry">
            <mxPoint x="-2430" y="639.9000000000001" as="sourcePoint" />
            <mxPoint x="-2410" y="639.9000000000001" as="targetPoint" />
            <Array as="points" />
          </mxGeometry>
        </mxCell>
        <mxCell id="YBqSXtyDXEX9drz1hpcT-180" value="" style="edgeStyle=none;orthogonalLoop=1;jettySize=auto;html=1;rounded=0;" edge="1" parent="1">
          <mxGeometry width="80" relative="1" as="geometry">
            <mxPoint x="-2380" y="639.9000000000001" as="sourcePoint" />
            <mxPoint x="-2360" y="639.9000000000001" as="targetPoint" />
            <Array as="points" />
          </mxGeometry>
        </mxCell>
        <mxCell id="YBqSXtyDXEX9drz1hpcT-181" value="" style="edgeStyle=none;orthogonalLoop=1;jettySize=auto;html=1;rounded=0;" edge="1" parent="1">
          <mxGeometry width="80" relative="1" as="geometry">
            <mxPoint x="-2560" y="660" as="sourcePoint" />
            <mxPoint x="-2540" y="660" as="targetPoint" />
            <Array as="points" />
          </mxGeometry>
        </mxCell>
        <mxCell id="YBqSXtyDXEX9drz1hpcT-182" value="div_r_out" style="text;html=1;resizable=0;autosize=1;align=center;verticalAlign=middle;points=[];fillColor=none;strokeColor=none;rounded=0;" vertex="1" parent="1">
          <mxGeometry x="-2560" y="635" width="70" height="30" as="geometry" />
        </mxCell>
        <mxCell id="YBqSXtyDXEX9drz1hpcT-183" value="" style="edgeStyle=none;orthogonalLoop=1;jettySize=auto;html=1;rounded=0;" edge="1" parent="1">
          <mxGeometry width="80" relative="1" as="geometry">
            <mxPoint x="-2560" y="719.72" as="sourcePoint" />
            <mxPoint x="-2540" y="719.72" as="targetPoint" />
            <Array as="points" />
          </mxGeometry>
        </mxCell>
        <mxCell id="YBqSXtyDXEX9drz1hpcT-184" value="divu_q_out" style="text;html=1;resizable=0;autosize=1;align=center;verticalAlign=middle;points=[];fillColor=none;strokeColor=none;rounded=0;" vertex="1" parent="1">
          <mxGeometry x="-2562.5" y="690" width="80" height="30" as="geometry" />
        </mxCell>
        <mxCell id="YBqSXtyDXEX9drz1hpcT-185" value="div_q_out" style="text;html=1;resizable=0;autosize=1;align=center;verticalAlign=middle;points=[];fillColor=none;strokeColor=none;rounded=0;" vertex="1" parent="1">
          <mxGeometry x="-2492.5" y="615" width="80" height="30" as="geometry" />
        </mxCell>
        <mxCell id="YBqSXtyDXEX9drz1hpcT-186" value="exme_q" style="text;html=1;resizable=0;autosize=1;align=center;verticalAlign=middle;points=[];fillColor=none;strokeColor=none;rounded=0;" vertex="1" parent="1">
          <mxGeometry x="-2383" y="615" width="70" height="30" as="geometry" />
        </mxCell>
        <mxCell id="YBqSXtyDXEX9drz1hpcT-187" value="QU" style="rounded=0;whiteSpace=wrap;html=1;fontSize=13;" vertex="1" parent="1">
          <mxGeometry x="-2410" y="725" width="30" height="35" as="geometry" />
        </mxCell>
        <mxCell id="YBqSXtyDXEX9drz1hpcT-188" value="" style="edgeStyle=none;orthogonalLoop=1;jettySize=auto;html=1;rounded=0;" edge="1" parent="1">
          <mxGeometry width="80" relative="1" as="geometry">
            <mxPoint x="-2430" y="744.9000000000001" as="sourcePoint" />
            <mxPoint x="-2410" y="744.9000000000001" as="targetPoint" />
            <Array as="points" />
          </mxGeometry>
        </mxCell>
        <mxCell id="YBqSXtyDXEX9drz1hpcT-189" value="" style="edgeStyle=none;orthogonalLoop=1;jettySize=auto;html=1;rounded=0;" edge="1" parent="1">
          <mxGeometry width="80" relative="1" as="geometry">
            <mxPoint x="-2380" y="744.9000000000001" as="sourcePoint" />
            <mxPoint x="-2360" y="744.9000000000001" as="targetPoint" />
            <Array as="points" />
          </mxGeometry>
        </mxCell>
        <mxCell id="YBqSXtyDXEX9drz1hpcT-190" value="divu_q_out" style="text;html=1;resizable=0;autosize=1;align=center;verticalAlign=middle;points=[];fillColor=none;strokeColor=none;rounded=0;" vertex="1" parent="1">
          <mxGeometry x="-2492.5" y="720" width="80" height="30" as="geometry" />
        </mxCell>
        <mxCell id="YBqSXtyDXEX9drz1hpcT-191" value="exme_qu" style="text;html=1;resizable=0;autosize=1;align=center;verticalAlign=middle;points=[];fillColor=none;strokeColor=none;rounded=0;" vertex="1" parent="1">
          <mxGeometry x="-2383" y="720" width="70" height="30" as="geometry" />
        </mxCell>
        <mxCell id="YBqSXtyDXEX9drz1hpcT-192" value="R" style="rounded=0;whiteSpace=wrap;html=1;fontSize=13;" vertex="1" parent="1">
          <mxGeometry x="-2410" y="670" width="30" height="35" as="geometry" />
        </mxCell>
        <mxCell id="YBqSXtyDXEX9drz1hpcT-193" value="" style="edgeStyle=none;orthogonalLoop=1;jettySize=auto;html=1;rounded=0;" edge="1" parent="1">
          <mxGeometry width="80" relative="1" as="geometry">
            <mxPoint x="-2430" y="689.9000000000001" as="sourcePoint" />
            <mxPoint x="-2410" y="689.9000000000001" as="targetPoint" />
            <Array as="points" />
          </mxGeometry>
        </mxCell>
        <mxCell id="YBqSXtyDXEX9drz1hpcT-194" value="" style="edgeStyle=none;orthogonalLoop=1;jettySize=auto;html=1;rounded=0;" edge="1" parent="1">
          <mxGeometry width="80" relative="1" as="geometry">
            <mxPoint x="-2380" y="689.9000000000001" as="sourcePoint" />
            <mxPoint x="-2360" y="689.9000000000001" as="targetPoint" />
            <Array as="points" />
          </mxGeometry>
        </mxCell>
        <mxCell id="YBqSXtyDXEX9drz1hpcT-195" value="div_r_out" style="text;html=1;resizable=0;autosize=1;align=center;verticalAlign=middle;points=[];fillColor=none;strokeColor=none;rounded=0;" vertex="1" parent="1">
          <mxGeometry x="-2487.5" y="665" width="70" height="30" as="geometry" />
        </mxCell>
        <mxCell id="YBqSXtyDXEX9drz1hpcT-196" value="exme_r" style="text;html=1;resizable=0;autosize=1;align=center;verticalAlign=middle;points=[];fillColor=none;strokeColor=none;rounded=0;" vertex="1" parent="1">
          <mxGeometry x="-2378" y="665" width="60" height="30" as="geometry" />
        </mxCell>
        <mxCell id="YBqSXtyDXEX9drz1hpcT-197" value="RU" style="rounded=0;whiteSpace=wrap;html=1;fontSize=13;" vertex="1" parent="1">
          <mxGeometry x="-2410" y="775" width="30" height="35" as="geometry" />
        </mxCell>
        <mxCell id="YBqSXtyDXEX9drz1hpcT-198" value="" style="edgeStyle=none;orthogonalLoop=1;jettySize=auto;html=1;rounded=0;" edge="1" parent="1">
          <mxGeometry width="80" relative="1" as="geometry">
            <mxPoint x="-2430" y="794.9000000000001" as="sourcePoint" />
            <mxPoint x="-2410" y="794.9000000000001" as="targetPoint" />
            <Array as="points" />
          </mxGeometry>
        </mxCell>
        <mxCell id="YBqSXtyDXEX9drz1hpcT-199" value="" style="edgeStyle=none;orthogonalLoop=1;jettySize=auto;html=1;rounded=0;" edge="1" parent="1">
          <mxGeometry width="80" relative="1" as="geometry">
            <mxPoint x="-2380" y="794.9000000000001" as="sourcePoint" />
            <mxPoint x="-2360" y="794.9000000000001" as="targetPoint" />
            <Array as="points" />
          </mxGeometry>
        </mxCell>
        <mxCell id="YBqSXtyDXEX9drz1hpcT-200" value="divu_r_out" style="text;html=1;resizable=0;autosize=1;align=center;verticalAlign=middle;points=[];fillColor=none;strokeColor=none;rounded=0;" vertex="1" parent="1">
          <mxGeometry x="-2492.5" y="770" width="80" height="30" as="geometry" />
        </mxCell>
        <mxCell id="YBqSXtyDXEX9drz1hpcT-201" value="exme_ru" style="text;html=1;resizable=0;autosize=1;align=center;verticalAlign=middle;points=[];fillColor=none;strokeColor=none;rounded=0;" vertex="1" parent="1">
          <mxGeometry x="-2383" y="770" width="70" height="30" as="geometry" />
        </mxCell>
        <mxCell id="YBqSXtyDXEX9drz1hpcT-202" value="ALUo" style="rounded=0;whiteSpace=wrap;html=1;fontSize=13;" vertex="1" parent="1">
          <mxGeometry x="-2412.5" y="825" width="40" height="35" as="geometry" />
        </mxCell>
        <mxCell id="YBqSXtyDXEX9drz1hpcT-203" value="" style="edgeStyle=none;orthogonalLoop=1;jettySize=auto;html=1;rounded=0;" edge="1" parent="1">
          <mxGeometry width="80" relative="1" as="geometry">
            <mxPoint x="-2432.5" y="842.3899999999999" as="sourcePoint" />
            <mxPoint x="-2412.5" y="842.3899999999999" as="targetPoint" />
            <Array as="points" />
          </mxGeometry>
        </mxCell>
        <mxCell id="YBqSXtyDXEX9drz1hpcT-204" value="" style="edgeStyle=none;orthogonalLoop=1;jettySize=auto;html=1;rounded=0;" edge="1" parent="1">
          <mxGeometry width="80" relative="1" as="geometry">
            <mxPoint x="-2372.5" y="842.3899999999999" as="sourcePoint" />
            <mxPoint x="-2352.5" y="842.3899999999999" as="targetPoint" />
            <Array as="points" />
          </mxGeometry>
        </mxCell>
        <mxCell id="YBqSXtyDXEX9drz1hpcT-205" value="alu_out" style="text;html=1;resizable=0;autosize=1;align=center;verticalAlign=middle;points=[];fillColor=none;strokeColor=none;rounded=0;" vertex="1" parent="1">
          <mxGeometry x="-2480" y="820" width="60" height="30" as="geometry" />
        </mxCell>
        <mxCell id="YBqSXtyDXEX9drz1hpcT-206" value="exme_alu" style="text;html=1;resizable=0;autosize=1;align=center;verticalAlign=middle;points=[];fillColor=none;strokeColor=none;rounded=0;" vertex="1" parent="1">
          <mxGeometry x="-2384" y="820" width="80" height="30" as="geometry" />
        </mxCell>
        <mxCell id="YBqSXtyDXEX9drz1hpcT-207" value="Z" style="rounded=0;whiteSpace=wrap;html=1;fontSize=13;" vertex="1" parent="1">
          <mxGeometry x="-2410" y="875" width="30" height="35" as="geometry" />
        </mxCell>
        <mxCell id="YBqSXtyDXEX9drz1hpcT-208" value="" style="edgeStyle=none;orthogonalLoop=1;jettySize=auto;html=1;rounded=0;" edge="1" parent="1">
          <mxGeometry width="80" relative="1" as="geometry">
            <mxPoint x="-2430" y="894.9000000000001" as="sourcePoint" />
            <mxPoint x="-2410" y="894.9000000000001" as="targetPoint" />
            <Array as="points" />
          </mxGeometry>
        </mxCell>
        <mxCell id="YBqSXtyDXEX9drz1hpcT-209" value="" style="edgeStyle=none;orthogonalLoop=1;jettySize=auto;html=1;rounded=0;" edge="1" parent="1">
          <mxGeometry width="80" relative="1" as="geometry">
            <mxPoint x="-2380" y="894.9000000000001" as="sourcePoint" />
            <mxPoint x="-2360" y="894.9000000000001" as="targetPoint" />
            <Array as="points" />
          </mxGeometry>
        </mxCell>
        <mxCell id="YBqSXtyDXEX9drz1hpcT-210" value="exme_mul" style="text;html=1;resizable=0;autosize=1;align=center;verticalAlign=middle;points=[];fillColor=none;strokeColor=none;rounded=0;" vertex="1" parent="1">
          <mxGeometry x="-2383" y="870" width="80" height="30" as="geometry" />
        </mxCell>
        <mxCell id="YBqSXtyDXEX9drz1hpcT-211" value="mul_out" style="text;html=1;resizable=0;autosize=1;align=center;verticalAlign=middle;points=[];fillColor=none;strokeColor=none;rounded=0;" vertex="1" parent="1">
          <mxGeometry x="-2485" y="870" width="70" height="30" as="geometry" />
        </mxCell>
        <mxCell id="YBqSXtyDXEX9drz1hpcT-212" value="ZTU" style="rounded=0;whiteSpace=wrap;html=1;fontSize=13;" vertex="1" parent="1">
          <mxGeometry x="-2410" y="925" width="30" height="35" as="geometry" />
        </mxCell>
        <mxCell id="YBqSXtyDXEX9drz1hpcT-213" value="" style="edgeStyle=none;orthogonalLoop=1;jettySize=auto;html=1;rounded=0;" edge="1" parent="1">
          <mxGeometry width="80" relative="1" as="geometry">
            <mxPoint x="-2430" y="944.9000000000001" as="sourcePoint" />
            <mxPoint x="-2410" y="944.9000000000001" as="targetPoint" />
            <Array as="points" />
          </mxGeometry>
        </mxCell>
        <mxCell id="YBqSXtyDXEX9drz1hpcT-214" value="" style="edgeStyle=none;orthogonalLoop=1;jettySize=auto;html=1;rounded=0;" edge="1" parent="1">
          <mxGeometry width="80" relative="1" as="geometry">
            <mxPoint x="-2380" y="944.9000000000001" as="sourcePoint" />
            <mxPoint x="-2360" y="944.9000000000001" as="targetPoint" />
            <Array as="points" />
          </mxGeometry>
        </mxCell>
        <mxCell id="YBqSXtyDXEX9drz1hpcT-215" value="exme_multu" style="text;html=1;resizable=0;autosize=1;align=center;verticalAlign=middle;points=[];fillColor=none;strokeColor=none;rounded=0;" vertex="1" parent="1">
          <mxGeometry x="-2385" y="920" width="90" height="30" as="geometry" />
        </mxCell>
        <mxCell id="YBqSXtyDXEX9drz1hpcT-216" value="multu_out" style="text;html=1;resizable=0;autosize=1;align=center;verticalAlign=middle;points=[];fillColor=none;strokeColor=none;rounded=0;" vertex="1" parent="1">
          <mxGeometry x="-2490" y="920" width="80" height="30" as="geometry" />
        </mxCell>
        <mxCell id="YBqSXtyDXEX9drz1hpcT-217" value="RDATA" style="rounded=0;whiteSpace=wrap;html=1;fontSize=13;" vertex="1" parent="1">
          <mxGeometry x="-2414.5" y="975" width="41" height="35" as="geometry" />
        </mxCell>
        <mxCell id="YBqSXtyDXEX9drz1hpcT-218" value="" style="edgeStyle=none;orthogonalLoop=1;jettySize=auto;html=1;rounded=0;" edge="1" parent="1">
          <mxGeometry width="80" relative="1" as="geometry">
            <mxPoint x="-2434.5" y="995" as="sourcePoint" />
            <mxPoint x="-2414.5" y="995" as="targetPoint" />
            <Array as="points" />
          </mxGeometry>
        </mxCell>
        <mxCell id="YBqSXtyDXEX9drz1hpcT-219" value="idex_rdata" style="text;html=1;resizable=0;autosize=1;align=center;verticalAlign=middle;points=[];fillColor=none;strokeColor=none;rounded=0;" vertex="1" parent="1">
          <mxGeometry x="-2493" y="970" width="80" height="30" as="geometry" />
        </mxCell>
        <mxCell id="YBqSXtyDXEX9drz1hpcT-220" value="" style="edgeStyle=none;orthogonalLoop=1;jettySize=auto;html=1;rounded=0;" edge="1" parent="1">
          <mxGeometry width="80" relative="1" as="geometry">
            <mxPoint x="-2373.5" y="995" as="sourcePoint" />
            <mxPoint x="-2353.5" y="995" as="targetPoint" />
            <Array as="points" />
          </mxGeometry>
        </mxCell>
        <mxCell id="YBqSXtyDXEX9drz1hpcT-221" value="exme_rdata" style="text;html=1;resizable=0;autosize=1;align=center;verticalAlign=middle;points=[];fillColor=none;strokeColor=none;rounded=0;" vertex="1" parent="1">
          <mxGeometry x="-2388" y="970" width="90" height="30" as="geometry" />
        </mxCell>
        <mxCell id="YBqSXtyDXEX9drz1hpcT-222" value="IR" style="rounded=0;whiteSpace=wrap;html=1;fontSize=13;" vertex="1" parent="1">
          <mxGeometry x="-2410" y="1025" width="30" height="35" as="geometry" />
        </mxCell>
        <mxCell id="YBqSXtyDXEX9drz1hpcT-223" value="" style="edgeStyle=none;orthogonalLoop=1;jettySize=auto;html=1;rounded=0;" edge="1" parent="1">
          <mxGeometry width="80" relative="1" as="geometry">
            <mxPoint x="-2430" y="1044.9" as="sourcePoint" />
            <mxPoint x="-2410" y="1044.9" as="targetPoint" />
            <Array as="points" />
          </mxGeometry>
        </mxCell>
        <mxCell id="YBqSXtyDXEX9drz1hpcT-224" value="idex_ir" style="text;html=1;resizable=0;autosize=1;align=center;verticalAlign=middle;points=[];fillColor=none;strokeColor=none;rounded=0;" vertex="1" parent="1">
          <mxGeometry x="-2475" y="1020" width="60" height="30" as="geometry" />
        </mxCell>
        <mxCell id="YBqSXtyDXEX9drz1hpcT-225" value="" style="edgeStyle=none;orthogonalLoop=1;jettySize=auto;html=1;rounded=0;" edge="1" parent="1">
          <mxGeometry width="80" relative="1" as="geometry">
            <mxPoint x="-2380" y="1044.9" as="sourcePoint" />
            <mxPoint x="-2360" y="1044.9" as="targetPoint" />
            <Array as="points" />
          </mxGeometry>
        </mxCell>
        <mxCell id="YBqSXtyDXEX9drz1hpcT-226" value="exme_ir" style="text;html=1;resizable=0;autosize=1;align=center;verticalAlign=middle;points=[];fillColor=none;strokeColor=none;rounded=0;" vertex="1" parent="1">
          <mxGeometry x="-2390" y="1020" width="70" height="30" as="geometry" />
        </mxCell>
        <mxCell id="YBqSXtyDXEX9drz1hpcT-227" value="" style="rounded=0;whiteSpace=wrap;html=1;fontSize=12;" vertex="1" parent="1">
          <mxGeometry x="-2310" y="600" width="270" height="570" as="geometry" />
        </mxCell>
        <mxCell id="YBqSXtyDXEX9drz1hpcT-228" value="CONV_IN" style="rounded=0;whiteSpace=wrap;html=1;fontSize=12;" vertex="1" parent="1">
          <mxGeometry x="-2228" y="670" width="89" height="70" as="geometry" />
        </mxCell>
        <mxCell id="YBqSXtyDXEX9drz1hpcT-229" value="exme_rdata" style="text;html=1;resizable=0;autosize=1;align=center;verticalAlign=middle;points=[];fillColor=none;strokeColor=none;rounded=0;" vertex="1" parent="1">
          <mxGeometry x="-2318" y="685" width="90" height="30" as="geometry" />
        </mxCell>
        <mxCell id="YBqSXtyDXEX9drz1hpcT-230" value="" style="edgeStyle=none;orthogonalLoop=1;jettySize=auto;html=1;rounded=0;" edge="1" parent="1">
          <mxGeometry width="80" relative="1" as="geometry">
            <mxPoint x="-2248" y="707.3899999999999" as="sourcePoint" />
            <mxPoint x="-2228" y="707.3899999999999" as="targetPoint" />
            <Array as="points" />
          </mxGeometry>
        </mxCell>
        <mxCell id="YBqSXtyDXEX9drz1hpcT-231" value="" style="edgeStyle=none;orthogonalLoop=1;jettySize=auto;html=1;rounded=0;" edge="1" parent="1">
          <mxGeometry width="80" relative="1" as="geometry">
            <mxPoint x="-2139" y="707.3" as="sourcePoint" />
            <mxPoint x="-2119" y="707.3" as="targetPoint" />
            <Array as="points" />
          </mxGeometry>
        </mxCell>
        <mxCell id="YBqSXtyDXEX9drz1hpcT-232" value="conv1_out" style="text;html=1;resizable=0;autosize=1;align=center;verticalAlign=middle;points=[];fillColor=none;strokeColor=none;rounded=0;" vertex="1" parent="1">
          <mxGeometry x="-2137" y="685" width="80" height="30" as="geometry" />
        </mxCell>
        <mxCell id="YBqSXtyDXEX9drz1hpcT-233" value="CONV_OUT" style="rounded=0;whiteSpace=wrap;html=1;fontSize=12;" vertex="1" parent="1">
          <mxGeometry x="-2228" y="757.5" width="89" height="70" as="geometry" />
        </mxCell>
        <mxCell id="YBqSXtyDXEX9drz1hpcT-234" value="dmem_out" style="text;html=1;resizable=0;autosize=1;align=center;verticalAlign=middle;points=[];fillColor=none;strokeColor=none;rounded=0;" vertex="1" parent="1">
          <mxGeometry x="-2313" y="770" width="80" height="30" as="geometry" />
        </mxCell>
        <mxCell id="YBqSXtyDXEX9drz1hpcT-235" value="" style="edgeStyle=none;orthogonalLoop=1;jettySize=auto;html=1;rounded=0;" edge="1" parent="1">
          <mxGeometry width="80" relative="1" as="geometry">
            <mxPoint x="-2248" y="792.3899999999999" as="sourcePoint" />
            <mxPoint x="-2228" y="792.3899999999999" as="targetPoint" />
            <Array as="points" />
          </mxGeometry>
        </mxCell>
        <mxCell id="YBqSXtyDXEX9drz1hpcT-236" value="" style="edgeStyle=none;orthogonalLoop=1;jettySize=auto;html=1;rounded=0;" edge="1" parent="1">
          <mxGeometry width="80" relative="1" as="geometry">
            <mxPoint x="-2139" y="794.8" as="sourcePoint" />
            <mxPoint x="-2119" y="794.8" as="targetPoint" />
            <Array as="points" />
          </mxGeometry>
        </mxCell>
        <mxCell id="YBqSXtyDXEX9drz1hpcT-237" value="conv2_out" style="text;html=1;resizable=0;autosize=1;align=center;verticalAlign=middle;points=[];fillColor=none;strokeColor=none;rounded=0;" vertex="1" parent="1">
          <mxGeometry x="-2137" y="772.5" width="80" height="30" as="geometry" />
        </mxCell>
        <mxCell id="YBqSXtyDXEX9drz1hpcT-238" value="DMEM" style="rounded=0;whiteSpace=wrap;html=1;fontSize=12;" vertex="1" parent="1">
          <mxGeometry x="-2244" y="885" width="134" height="145" as="geometry" />
        </mxCell>
        <mxCell id="YBqSXtyDXEX9drz1hpcT-239" value="exme_alu" style="text;html=1;resizable=0;autosize=1;align=center;verticalAlign=middle;points=[];fillColor=none;strokeColor=none;rounded=0;" vertex="1" parent="1">
          <mxGeometry x="-2329" y="905" width="80" height="30" as="geometry" />
        </mxCell>
        <mxCell id="YBqSXtyDXEX9drz1hpcT-240" value="" style="edgeStyle=none;orthogonalLoop=1;jettySize=auto;html=1;rounded=0;" edge="1" parent="1">
          <mxGeometry width="80" relative="1" as="geometry">
            <mxPoint x="-2264" y="927.3899999999999" as="sourcePoint" />
            <mxPoint x="-2244" y="927.3899999999999" as="targetPoint" />
            <Array as="points" />
          </mxGeometry>
        </mxCell>
        <mxCell id="YBqSXtyDXEX9drz1hpcT-241" value="conv1_out" style="text;html=1;resizable=0;autosize=1;align=center;verticalAlign=middle;points=[];fillColor=none;strokeColor=none;rounded=0;" vertex="1" parent="1">
          <mxGeometry x="-2329" y="975" width="80" height="30" as="geometry" />
        </mxCell>
        <mxCell id="YBqSXtyDXEX9drz1hpcT-242" value="" style="edgeStyle=none;orthogonalLoop=1;jettySize=auto;html=1;rounded=0;" edge="1" parent="1">
          <mxGeometry width="80" relative="1" as="geometry">
            <mxPoint x="-2264" y="997.3899999999999" as="sourcePoint" />
            <mxPoint x="-2244" y="997.3899999999999" as="targetPoint" />
            <Array as="points" />
          </mxGeometry>
        </mxCell>
        <mxCell id="YBqSXtyDXEX9drz1hpcT-243" value="" style="edgeStyle=none;orthogonalLoop=1;jettySize=auto;html=1;rounded=0;" edge="1" parent="1">
          <mxGeometry width="80" relative="1" as="geometry">
            <mxPoint x="-2111" y="957.3" as="sourcePoint" />
            <mxPoint x="-2091" y="957.3" as="targetPoint" />
            <Array as="points" />
          </mxGeometry>
        </mxCell>
        <mxCell id="YBqSXtyDXEX9drz1hpcT-244" value="dmem_out" style="text;html=1;resizable=0;autosize=1;align=center;verticalAlign=middle;points=[];fillColor=none;strokeColor=none;rounded=0;" vertex="1" parent="1">
          <mxGeometry x="-2109" y="935" width="80" height="30" as="geometry" />
        </mxCell>
        <mxCell id="YBqSXtyDXEX9drz1hpcT-245" value="" style="rounded=0;whiteSpace=wrap;html=1;fontSize=13;" vertex="1" parent="1">
          <mxGeometry x="-1992" y="600" width="90" height="570" as="geometry" />
        </mxCell>
        <mxCell id="YBqSXtyDXEX9drz1hpcT-246" value="&lt;b&gt;&lt;font style=&quot;font-size: 13px;&quot;&gt;MEM/WB&lt;/font&gt;&lt;/b&gt;" style="text;html=1;resizable=0;autosize=1;align=center;verticalAlign=middle;points=[];fillColor=none;strokeColor=none;rounded=0;" vertex="1" parent="1">
          <mxGeometry x="-2007" y="570" width="80" height="30" as="geometry" />
        </mxCell>
        <mxCell id="YBqSXtyDXEX9drz1hpcT-247" value="Q" style="rounded=0;whiteSpace=wrap;html=1;fontSize=13;" vertex="1" parent="1">
          <mxGeometry x="-1962" y="620" width="30" height="35" as="geometry" />
        </mxCell>
        <mxCell id="YBqSXtyDXEX9drz1hpcT-248" value="" style="edgeStyle=none;orthogonalLoop=1;jettySize=auto;html=1;rounded=0;" edge="1" parent="1">
          <mxGeometry width="80" relative="1" as="geometry">
            <mxPoint x="-1982" y="639.9000000000001" as="sourcePoint" />
            <mxPoint x="-1962" y="639.9000000000001" as="targetPoint" />
            <Array as="points" />
          </mxGeometry>
        </mxCell>
        <mxCell id="YBqSXtyDXEX9drz1hpcT-249" value="" style="edgeStyle=none;orthogonalLoop=1;jettySize=auto;html=1;rounded=0;" edge="1" parent="1">
          <mxGeometry width="80" relative="1" as="geometry">
            <mxPoint x="-1932" y="639.9000000000001" as="sourcePoint" />
            <mxPoint x="-1912" y="639.9000000000001" as="targetPoint" />
            <Array as="points" />
          </mxGeometry>
        </mxCell>
        <mxCell id="YBqSXtyDXEX9drz1hpcT-250" value="div_q_out" style="text;html=1;resizable=0;autosize=1;align=center;verticalAlign=middle;points=[];fillColor=none;strokeColor=none;rounded=0;" vertex="1" parent="1">
          <mxGeometry x="-2044.5" y="615" width="80" height="30" as="geometry" />
        </mxCell>
        <mxCell id="YBqSXtyDXEX9drz1hpcT-251" value="mewb_q" style="text;html=1;resizable=0;autosize=1;align=center;verticalAlign=middle;points=[];fillColor=none;strokeColor=none;rounded=0;" vertex="1" parent="1">
          <mxGeometry x="-1935" y="615" width="70" height="30" as="geometry" />
        </mxCell>
        <mxCell id="YBqSXtyDXEX9drz1hpcT-252" value="QU" style="rounded=0;whiteSpace=wrap;html=1;fontSize=13;" vertex="1" parent="1">
          <mxGeometry x="-1962" y="725" width="30" height="35" as="geometry" />
        </mxCell>
        <mxCell id="YBqSXtyDXEX9drz1hpcT-253" value="" style="edgeStyle=none;orthogonalLoop=1;jettySize=auto;html=1;rounded=0;" edge="1" parent="1">
          <mxGeometry width="80" relative="1" as="geometry">
            <mxPoint x="-1982" y="744.9000000000001" as="sourcePoint" />
            <mxPoint x="-1962" y="744.9000000000001" as="targetPoint" />
            <Array as="points" />
          </mxGeometry>
        </mxCell>
        <mxCell id="YBqSXtyDXEX9drz1hpcT-254" value="" style="edgeStyle=none;orthogonalLoop=1;jettySize=auto;html=1;rounded=0;" edge="1" parent="1">
          <mxGeometry width="80" relative="1" as="geometry">
            <mxPoint x="-1932" y="744.9000000000001" as="sourcePoint" />
            <mxPoint x="-1912" y="744.9000000000001" as="targetPoint" />
            <Array as="points" />
          </mxGeometry>
        </mxCell>
        <mxCell id="YBqSXtyDXEX9drz1hpcT-255" value="divu_q_out" style="text;html=1;resizable=0;autosize=1;align=center;verticalAlign=middle;points=[];fillColor=none;strokeColor=none;rounded=0;" vertex="1" parent="1">
          <mxGeometry x="-2044.5" y="720" width="80" height="30" as="geometry" />
        </mxCell>
        <mxCell id="YBqSXtyDXEX9drz1hpcT-256" value="mewb_qu" style="text;html=1;resizable=0;autosize=1;align=center;verticalAlign=middle;points=[];fillColor=none;strokeColor=none;rounded=0;" vertex="1" parent="1">
          <mxGeometry x="-1940" y="720" width="80" height="30" as="geometry" />
        </mxCell>
        <mxCell id="YBqSXtyDXEX9drz1hpcT-257" value="R" style="rounded=0;whiteSpace=wrap;html=1;fontSize=13;" vertex="1" parent="1">
          <mxGeometry x="-1962" y="670" width="30" height="35" as="geometry" />
        </mxCell>
        <mxCell id="YBqSXtyDXEX9drz1hpcT-258" value="" style="edgeStyle=none;orthogonalLoop=1;jettySize=auto;html=1;rounded=0;" edge="1" parent="1">
          <mxGeometry width="80" relative="1" as="geometry">
            <mxPoint x="-1982" y="689.9000000000001" as="sourcePoint" />
            <mxPoint x="-1962" y="689.9000000000001" as="targetPoint" />
            <Array as="points" />
          </mxGeometry>
        </mxCell>
        <mxCell id="YBqSXtyDXEX9drz1hpcT-259" value="" style="edgeStyle=none;orthogonalLoop=1;jettySize=auto;html=1;rounded=0;" edge="1" parent="1">
          <mxGeometry width="80" relative="1" as="geometry">
            <mxPoint x="-1932" y="689.9000000000001" as="sourcePoint" />
            <mxPoint x="-1912" y="689.9000000000001" as="targetPoint" />
            <Array as="points" />
          </mxGeometry>
        </mxCell>
        <mxCell id="YBqSXtyDXEX9drz1hpcT-260" value="div_r_out" style="text;html=1;resizable=0;autosize=1;align=center;verticalAlign=middle;points=[];fillColor=none;strokeColor=none;rounded=0;" vertex="1" parent="1">
          <mxGeometry x="-2039.5" y="665" width="70" height="30" as="geometry" />
        </mxCell>
        <mxCell id="YBqSXtyDXEX9drz1hpcT-261" value="mewb_r" style="text;html=1;resizable=0;autosize=1;align=center;verticalAlign=middle;points=[];fillColor=none;strokeColor=none;rounded=0;" vertex="1" parent="1">
          <mxGeometry x="-1936" y="685" width="70" height="30" as="geometry" />
        </mxCell>
        <mxCell id="YBqSXtyDXEX9drz1hpcT-262" value="RU" style="rounded=0;whiteSpace=wrap;html=1;fontSize=13;" vertex="1" parent="1">
          <mxGeometry x="-1962" y="775" width="30" height="35" as="geometry" />
        </mxCell>
        <mxCell id="YBqSXtyDXEX9drz1hpcT-263" value="" style="edgeStyle=none;orthogonalLoop=1;jettySize=auto;html=1;rounded=0;" edge="1" parent="1">
          <mxGeometry width="80" relative="1" as="geometry">
            <mxPoint x="-1982" y="794.9000000000001" as="sourcePoint" />
            <mxPoint x="-1962" y="794.9000000000001" as="targetPoint" />
            <Array as="points" />
          </mxGeometry>
        </mxCell>
        <mxCell id="YBqSXtyDXEX9drz1hpcT-264" value="" style="edgeStyle=none;orthogonalLoop=1;jettySize=auto;html=1;rounded=0;" edge="1" parent="1">
          <mxGeometry width="80" relative="1" as="geometry">
            <mxPoint x="-1932" y="794.9000000000001" as="sourcePoint" />
            <mxPoint x="-1912" y="794.9000000000001" as="targetPoint" />
            <Array as="points" />
          </mxGeometry>
        </mxCell>
        <mxCell id="YBqSXtyDXEX9drz1hpcT-265" value="divu_r_out" style="text;html=1;resizable=0;autosize=1;align=center;verticalAlign=middle;points=[];fillColor=none;strokeColor=none;rounded=0;" vertex="1" parent="1">
          <mxGeometry x="-2044.5" y="770" width="80" height="30" as="geometry" />
        </mxCell>
        <mxCell id="YBqSXtyDXEX9drz1hpcT-266" value="mewb_ru" style="text;html=1;resizable=0;autosize=1;align=center;verticalAlign=middle;points=[];fillColor=none;strokeColor=none;rounded=0;" vertex="1" parent="1">
          <mxGeometry x="-1935" y="770" width="70" height="30" as="geometry" />
        </mxCell>
        <mxCell id="YBqSXtyDXEX9drz1hpcT-267" value="ALUo" style="rounded=0;whiteSpace=wrap;html=1;fontSize=13;" vertex="1" parent="1">
          <mxGeometry x="-1964.5" y="825" width="40" height="35" as="geometry" />
        </mxCell>
        <mxCell id="YBqSXtyDXEX9drz1hpcT-268" value="" style="edgeStyle=none;orthogonalLoop=1;jettySize=auto;html=1;rounded=0;" edge="1" parent="1">
          <mxGeometry width="80" relative="1" as="geometry">
            <mxPoint x="-1984.5" y="842.3899999999999" as="sourcePoint" />
            <mxPoint x="-1964.5" y="842.3899999999999" as="targetPoint" />
            <Array as="points" />
          </mxGeometry>
        </mxCell>
        <mxCell id="YBqSXtyDXEX9drz1hpcT-269" value="" style="edgeStyle=none;orthogonalLoop=1;jettySize=auto;html=1;rounded=0;" edge="1" parent="1">
          <mxGeometry width="80" relative="1" as="geometry">
            <mxPoint x="-1924.5" y="842.3899999999999" as="sourcePoint" />
            <mxPoint x="-1904.5" y="842.3899999999999" as="targetPoint" />
            <Array as="points" />
          </mxGeometry>
        </mxCell>
        <mxCell id="YBqSXtyDXEX9drz1hpcT-270" value="alu_out" style="text;html=1;resizable=0;autosize=1;align=center;verticalAlign=middle;points=[];fillColor=none;strokeColor=none;rounded=0;" vertex="1" parent="1">
          <mxGeometry x="-2032" y="820" width="60" height="30" as="geometry" />
        </mxCell>
        <mxCell id="YBqSXtyDXEX9drz1hpcT-271" value="mewb_alu" style="text;html=1;resizable=0;autosize=1;align=center;verticalAlign=middle;points=[];fillColor=none;strokeColor=none;rounded=0;" vertex="1" parent="1">
          <mxGeometry x="-1936" y="820" width="80" height="30" as="geometry" />
        </mxCell>
        <mxCell id="YBqSXtyDXEX9drz1hpcT-272" value="Z" style="rounded=0;whiteSpace=wrap;html=1;fontSize=13;" vertex="1" parent="1">
          <mxGeometry x="-1962" y="875" width="30" height="35" as="geometry" />
        </mxCell>
        <mxCell id="YBqSXtyDXEX9drz1hpcT-273" value="" style="edgeStyle=none;orthogonalLoop=1;jettySize=auto;html=1;rounded=0;" edge="1" parent="1">
          <mxGeometry width="80" relative="1" as="geometry">
            <mxPoint x="-1982" y="894.9000000000001" as="sourcePoint" />
            <mxPoint x="-1962" y="894.9000000000001" as="targetPoint" />
            <Array as="points" />
          </mxGeometry>
        </mxCell>
        <mxCell id="YBqSXtyDXEX9drz1hpcT-274" value="" style="edgeStyle=none;orthogonalLoop=1;jettySize=auto;html=1;rounded=0;" edge="1" parent="1">
          <mxGeometry width="80" relative="1" as="geometry">
            <mxPoint x="-1932" y="894.9000000000001" as="sourcePoint" />
            <mxPoint x="-1912" y="894.9000000000001" as="targetPoint" />
            <Array as="points" />
          </mxGeometry>
        </mxCell>
        <mxCell id="YBqSXtyDXEX9drz1hpcT-275" value="mewb_mul" style="text;html=1;resizable=0;autosize=1;align=center;verticalAlign=middle;points=[];fillColor=none;strokeColor=none;rounded=0;" vertex="1" parent="1">
          <mxGeometry x="-1935" y="870" width="80" height="30" as="geometry" />
        </mxCell>
        <mxCell id="YBqSXtyDXEX9drz1hpcT-276" value="mul_out" style="text;html=1;resizable=0;autosize=1;align=center;verticalAlign=middle;points=[];fillColor=none;strokeColor=none;rounded=0;" vertex="1" parent="1">
          <mxGeometry x="-2037" y="870" width="70" height="30" as="geometry" />
        </mxCell>
        <mxCell id="YBqSXtyDXEX9drz1hpcT-277" value="ZTU" style="rounded=0;whiteSpace=wrap;html=1;fontSize=13;" vertex="1" parent="1">
          <mxGeometry x="-1962" y="925" width="30" height="35" as="geometry" />
        </mxCell>
        <mxCell id="YBqSXtyDXEX9drz1hpcT-278" value="" style="edgeStyle=none;orthogonalLoop=1;jettySize=auto;html=1;rounded=0;" edge="1" parent="1">
          <mxGeometry width="80" relative="1" as="geometry">
            <mxPoint x="-1982" y="944.9000000000001" as="sourcePoint" />
            <mxPoint x="-1962" y="944.9000000000001" as="targetPoint" />
            <Array as="points" />
          </mxGeometry>
        </mxCell>
        <mxCell id="YBqSXtyDXEX9drz1hpcT-279" value="" style="edgeStyle=none;orthogonalLoop=1;jettySize=auto;html=1;rounded=0;" edge="1" parent="1">
          <mxGeometry width="80" relative="1" as="geometry">
            <mxPoint x="-1932" y="944.9000000000001" as="sourcePoint" />
            <mxPoint x="-1912" y="944.9000000000001" as="targetPoint" />
            <Array as="points" />
          </mxGeometry>
        </mxCell>
        <mxCell id="YBqSXtyDXEX9drz1hpcT-280" value="mewb_multu" style="text;html=1;resizable=0;autosize=1;align=center;verticalAlign=middle;points=[];fillColor=none;strokeColor=none;rounded=0;" vertex="1" parent="1">
          <mxGeometry x="-1940" y="935" width="90" height="30" as="geometry" />
        </mxCell>
        <mxCell id="YBqSXtyDXEX9drz1hpcT-281" value="multu_out" style="text;html=1;resizable=0;autosize=1;align=center;verticalAlign=middle;points=[];fillColor=none;strokeColor=none;rounded=0;" vertex="1" parent="1">
          <mxGeometry x="-2042" y="920" width="80" height="30" as="geometry" />
        </mxCell>
        <mxCell id="YBqSXtyDXEX9drz1hpcT-282" value="MDR" style="rounded=0;whiteSpace=wrap;html=1;fontSize=13;" vertex="1" parent="1">
          <mxGeometry x="-1966.5" y="975" width="41" height="35" as="geometry" />
        </mxCell>
        <mxCell id="YBqSXtyDXEX9drz1hpcT-283" value="" style="edgeStyle=none;orthogonalLoop=1;jettySize=auto;html=1;rounded=0;" edge="1" parent="1">
          <mxGeometry width="80" relative="1" as="geometry">
            <mxPoint x="-1986.5" y="995" as="sourcePoint" />
            <mxPoint x="-1966.5" y="995" as="targetPoint" />
            <Array as="points" />
          </mxGeometry>
        </mxCell>
        <mxCell id="YBqSXtyDXEX9drz1hpcT-284" value="conv2_out" style="text;html=1;resizable=0;autosize=1;align=center;verticalAlign=middle;points=[];fillColor=none;strokeColor=none;rounded=0;" vertex="1" parent="1">
          <mxGeometry x="-2045" y="970" width="80" height="30" as="geometry" />
        </mxCell>
        <mxCell id="YBqSXtyDXEX9drz1hpcT-285" value="" style="edgeStyle=none;orthogonalLoop=1;jettySize=auto;html=1;rounded=0;" edge="1" parent="1">
          <mxGeometry width="80" relative="1" as="geometry">
            <mxPoint x="-1925.5" y="995" as="sourcePoint" />
            <mxPoint x="-1905.5" y="995" as="targetPoint" />
            <Array as="points" />
          </mxGeometry>
        </mxCell>
        <mxCell id="YBqSXtyDXEX9drz1hpcT-286" value="mewb_mdr" style="text;html=1;resizable=0;autosize=1;align=center;verticalAlign=middle;points=[];fillColor=none;strokeColor=none;rounded=0;" vertex="1" parent="1">
          <mxGeometry x="-1927" y="970" width="80" height="30" as="geometry" />
        </mxCell>
        <mxCell id="YBqSXtyDXEX9drz1hpcT-287" value="IR" style="rounded=0;whiteSpace=wrap;html=1;fontSize=13;" vertex="1" parent="1">
          <mxGeometry x="-1962" y="1025" width="30" height="35" as="geometry" />
        </mxCell>
        <mxCell id="YBqSXtyDXEX9drz1hpcT-288" value="" style="edgeStyle=none;orthogonalLoop=1;jettySize=auto;html=1;rounded=0;" edge="1" parent="1">
          <mxGeometry width="80" relative="1" as="geometry">
            <mxPoint x="-1982" y="1044.9000000000003" as="sourcePoint" />
            <mxPoint x="-1962" y="1044.9000000000003" as="targetPoint" />
            <Array as="points" />
          </mxGeometry>
        </mxCell>
        <mxCell id="YBqSXtyDXEX9drz1hpcT-289" value="idex_ir" style="text;html=1;resizable=0;autosize=1;align=center;verticalAlign=middle;points=[];fillColor=none;strokeColor=none;rounded=0;" vertex="1" parent="1">
          <mxGeometry x="-2027" y="1020" width="60" height="30" as="geometry" />
        </mxCell>
        <mxCell id="YBqSXtyDXEX9drz1hpcT-290" value="" style="edgeStyle=none;orthogonalLoop=1;jettySize=auto;html=1;rounded=0;" edge="1" parent="1">
          <mxGeometry width="80" relative="1" as="geometry">
            <mxPoint x="-1932" y="1044.9000000000003" as="sourcePoint" />
            <mxPoint x="-1912" y="1044.9000000000003" as="targetPoint" />
            <Array as="points" />
          </mxGeometry>
        </mxCell>
        <mxCell id="YBqSXtyDXEX9drz1hpcT-291" value="mewb_ir" style="text;html=1;resizable=0;autosize=1;align=center;verticalAlign=middle;points=[];fillColor=none;strokeColor=none;rounded=0;" vertex="1" parent="1">
          <mxGeometry x="-1937" y="1020" width="70" height="30" as="geometry" />
        </mxCell>
        <mxCell id="YBqSXtyDXEX9drz1hpcT-292" value="&lt;b&gt;&lt;font style=&quot;font-size: 13px;&quot;&gt;MEM&lt;/font&gt;&lt;/b&gt;" style="text;html=1;resizable=0;autosize=1;align=center;verticalAlign=middle;points=[];fillColor=none;strokeColor=none;rounded=0;" vertex="1" parent="1">
          <mxGeometry x="-2310" y="570" width="50" height="30" as="geometry" />
        </mxCell>
        <mxCell id="YBqSXtyDXEX9drz1hpcT-293" value="" style="rounded=0;whiteSpace=wrap;html=1;fontSize=12;" vertex="1" parent="1">
          <mxGeometry x="-1855" y="600" width="195" height="570" as="geometry" />
        </mxCell>
        <mxCell id="YBqSXtyDXEX9drz1hpcT-294" value="&lt;b&gt;&lt;font style=&quot;font-size: 13px;&quot;&gt;WB&lt;/font&gt;&lt;/b&gt;" style="text;html=1;resizable=0;autosize=1;align=center;verticalAlign=middle;points=[];fillColor=none;strokeColor=none;rounded=0;" vertex="1" parent="1">
          <mxGeometry x="-1860" y="570" width="50" height="30" as="geometry" />
        </mxCell>
        <mxCell id="YBqSXtyDXEX9drz1hpcT-295" value="MUX&lt;br&gt;_HI" style="rounded=0;whiteSpace=wrap;html=1;fontSize=12;" vertex="1" parent="1">
          <mxGeometry x="-1785" y="615" width="59" height="115" as="geometry" />
        </mxCell>
        <mxCell id="YBqSXtyDXEX9drz1hpcT-296" value="" style="edgeStyle=none;orthogonalLoop=1;jettySize=auto;html=1;rounded=0;" edge="1" parent="1">
          <mxGeometry width="80" relative="1" as="geometry">
            <mxPoint x="-1804.5" y="644.9000000000001" as="sourcePoint" />
            <mxPoint x="-1784.5" y="644.9000000000001" as="targetPoint" />
            <Array as="points" />
          </mxGeometry>
        </mxCell>
        <mxCell id="YBqSXtyDXEX9drz1hpcT-297" value="mewb_ru&lt;span style=&quot;color: rgba(0, 0, 0, 0); font-family: monospace; font-size: 0px; text-align: start;&quot;&gt;%3CmxGraphModel%3E%3Croot%3E%3CmxCell%20id%3D%220%22%2F%3E%3CmxCell%20id%3D%221%22%20parent%3D%220%22%2F%3E%3CmxCell%20id%3D%222%22%20value%3D%22%22%20style%3D%22edgeStyle%3Dnone%3BorthogonalLoop%3D1%3BjettySize%3Dauto%3Bhtml%3D1%3Brounded%3D0%3B%22%20edge%3D%221%22%20parent%3D%221%22%3E%3CmxGeometry%20width%3D%2280%22%20relative%3D%221%22%20as%3D%22geometry%22%3E%3CmxPoint%20x%3D%22-1806.5%22%20y%3D%22659.9000000000002%22%20as%3D%22sourcePoint%22%2F%3E%3CmxPoint%20x%3D%22-1786.5%22%20y%3D%22659.9000000000002%22%20as%3D%22targetPoint%22%2F%3E%3CArray%20as%3D%22points%22%2F%3E%3C%2FmxGeometry%3E%3C%2FmxCell%3E%3CmxCell%20id%3D%223%22%20value%3D%22mewb_r%22%20style%3D%22text%3Bhtml%3D1%3Bresizable%3D0%3Bautosize%3D1%3Balign%3Dcenter%3BverticalAlign%3Dmiddle%3Bpoints%3D%5B%5D%3BfillColor%3Dnone%3BstrokeColor%3Dnone%3Brounded%3D0%3B%22%20vertex%3D%221%22%20parent%3D%221%22%3E%3CmxGeometry%20x%3D%22-1864%22%20y%3D%22635%22%20width%3D%2270%22%20height%3D%2230%22%20as%3D%22geometry%22%2F%3E%3C%2FmxCell%3E%3C%2Froot%3E%3C%2FmxGraphModel%3E&lt;/span&gt;" style="text;html=1;resizable=0;autosize=1;align=center;verticalAlign=middle;points=[];fillColor=none;strokeColor=none;rounded=0;" vertex="1" parent="1">
          <mxGeometry x="-1862" y="645" width="70" height="30" as="geometry" />
        </mxCell>
        <mxCell id="YBqSXtyDXEX9drz1hpcT-298" value="" style="edgeStyle=none;orthogonalLoop=1;jettySize=auto;html=1;rounded=0;" edge="1" parent="1">
          <mxGeometry width="80" relative="1" as="geometry">
            <mxPoint x="-1805.75" y="669.9000000000001" as="sourcePoint" />
            <mxPoint x="-1785.75" y="669.9000000000001" as="targetPoint" />
            <Array as="points" />
          </mxGeometry>
        </mxCell>
        <mxCell id="YBqSXtyDXEX9drz1hpcT-299" value="" style="edgeStyle=none;orthogonalLoop=1;jettySize=auto;html=1;rounded=0;" edge="1" parent="1">
          <mxGeometry width="80" relative="1" as="geometry">
            <mxPoint x="-1804.5" y="689.9000000000001" as="sourcePoint" />
            <mxPoint x="-1784.5" y="689.9000000000001" as="targetPoint" />
            <Array as="points" />
          </mxGeometry>
        </mxCell>
        <mxCell id="YBqSXtyDXEX9drz1hpcT-300" value="mewb_multu[63:32]" style="text;html=1;resizable=0;autosize=1;align=center;verticalAlign=middle;points=[];fillColor=none;strokeColor=none;rounded=0;" vertex="1" parent="1">
          <mxGeometry x="-1902" y="665" width="130" height="30" as="geometry" />
        </mxCell>
        <mxCell id="YBqSXtyDXEX9drz1hpcT-301" value="" style="edgeStyle=none;orthogonalLoop=1;jettySize=auto;html=1;rounded=0;" edge="1" parent="1">
          <mxGeometry width="80" relative="1" as="geometry">
            <mxPoint x="-1804.5" y="709.9000000000001" as="sourcePoint" />
            <mxPoint x="-1784.5" y="709.9000000000001" as="targetPoint" />
            <Array as="points" />
          </mxGeometry>
        </mxCell>
        <mxCell id="YBqSXtyDXEX9drz1hpcT-302" value="mewb_alua" style="text;html=1;resizable=0;autosize=1;align=center;verticalAlign=middle;points=[];fillColor=none;strokeColor=none;rounded=0;" vertex="1" parent="1">
          <mxGeometry x="-1867" y="685" width="80" height="30" as="geometry" />
        </mxCell>
        <mxCell id="YBqSXtyDXEX9drz1hpcT-303" value="" style="edgeStyle=none;orthogonalLoop=1;jettySize=auto;html=1;rounded=0;" edge="1" parent="1">
          <mxGeometry width="80" relative="1" as="geometry">
            <mxPoint x="-1726" y="672.21" as="sourcePoint" />
            <mxPoint x="-1706" y="672.21" as="targetPoint" />
            <Array as="points" />
          </mxGeometry>
        </mxCell>
        <mxCell id="YBqSXtyDXEX9drz1hpcT-304" value="mux_hi_out" style="text;html=1;resizable=0;autosize=1;align=center;verticalAlign=middle;points=[];fillColor=none;strokeColor=none;rounded=0;" vertex="1" parent="1">
          <mxGeometry x="-1738" y="645" width="90" height="30" as="geometry" />
        </mxCell>
        <mxCell id="YBqSXtyDXEX9drz1hpcT-305" value="MUX&lt;br&gt;_LO" style="rounded=0;whiteSpace=wrap;html=1;fontSize=12;" vertex="1" parent="1">
          <mxGeometry x="-1785" y="745" width="59" height="115" as="geometry" />
        </mxCell>
        <mxCell id="YBqSXtyDXEX9drz1hpcT-306" value="" style="edgeStyle=none;orthogonalLoop=1;jettySize=auto;html=1;rounded=0;" edge="1" parent="1">
          <mxGeometry width="80" relative="1" as="geometry">
            <mxPoint x="-1804.5" y="774.9000000000001" as="sourcePoint" />
            <mxPoint x="-1784.5" y="774.9000000000001" as="targetPoint" />
            <Array as="points" />
          </mxGeometry>
        </mxCell>
        <mxCell id="YBqSXtyDXEX9drz1hpcT-307" value="mewb_qu" style="text;html=1;resizable=0;autosize=1;align=center;verticalAlign=middle;points=[];fillColor=none;strokeColor=none;rounded=0;" vertex="1" parent="1">
          <mxGeometry x="-1867" y="772.5" width="80" height="30" as="geometry" />
        </mxCell>
        <mxCell id="YBqSXtyDXEX9drz1hpcT-308" value="" style="edgeStyle=none;orthogonalLoop=1;jettySize=auto;html=1;rounded=0;" edge="1" parent="1">
          <mxGeometry width="80" relative="1" as="geometry">
            <mxPoint x="-1805.75" y="799.9000000000001" as="sourcePoint" />
            <mxPoint x="-1785.75" y="799.9000000000001" as="targetPoint" />
            <Array as="points" />
          </mxGeometry>
        </mxCell>
        <mxCell id="YBqSXtyDXEX9drz1hpcT-309" value="" style="edgeStyle=none;orthogonalLoop=1;jettySize=auto;html=1;rounded=0;" edge="1" parent="1">
          <mxGeometry width="80" relative="1" as="geometry">
            <mxPoint x="-1804.5" y="819.9000000000001" as="sourcePoint" />
            <mxPoint x="-1784.5" y="819.9000000000001" as="targetPoint" />
            <Array as="points" />
          </mxGeometry>
        </mxCell>
        <mxCell id="YBqSXtyDXEX9drz1hpcT-310" value="mewb_multu[31:0]" style="text;html=1;resizable=0;autosize=1;align=center;verticalAlign=middle;points=[];fillColor=none;strokeColor=none;rounded=0;" vertex="1" parent="1">
          <mxGeometry x="-1900" y="795" width="120" height="30" as="geometry" />
        </mxCell>
        <mxCell id="YBqSXtyDXEX9drz1hpcT-311" value="" style="edgeStyle=none;orthogonalLoop=1;jettySize=auto;html=1;rounded=0;" edge="1" parent="1">
          <mxGeometry width="80" relative="1" as="geometry">
            <mxPoint x="-1804.5" y="839.9000000000001" as="sourcePoint" />
            <mxPoint x="-1784.5" y="839.9000000000001" as="targetPoint" />
            <Array as="points" />
          </mxGeometry>
        </mxCell>
        <mxCell id="YBqSXtyDXEX9drz1hpcT-312" value="mewb_alua" style="text;html=1;resizable=0;autosize=1;align=center;verticalAlign=middle;points=[];fillColor=none;strokeColor=none;rounded=0;" vertex="1" parent="1">
          <mxGeometry x="-1867" y="820" width="80" height="30" as="geometry" />
        </mxCell>
        <mxCell id="YBqSXtyDXEX9drz1hpcT-313" value="" style="edgeStyle=none;orthogonalLoop=1;jettySize=auto;html=1;rounded=0;" edge="1" parent="1">
          <mxGeometry width="80" relative="1" as="geometry">
            <mxPoint x="-1726" y="802.21" as="sourcePoint" />
            <mxPoint x="-1706" y="802.21" as="targetPoint" />
            <Array as="points" />
          </mxGeometry>
        </mxCell>
        <mxCell id="YBqSXtyDXEX9drz1hpcT-314" value="mux_lo_out" style="text;html=1;resizable=0;autosize=1;align=center;verticalAlign=middle;points=[];fillColor=none;strokeColor=none;rounded=0;" vertex="1" parent="1">
          <mxGeometry x="-1738" y="775" width="90" height="30" as="geometry" />
        </mxCell>
        <mxCell id="YBqSXtyDXEX9drz1hpcT-315" value="mewb_r" style="text;html=1;resizable=0;autosize=1;align=center;verticalAlign=middle;points=[];fillColor=none;strokeColor=none;rounded=0;" vertex="1" parent="1">
          <mxGeometry x="-1860" y="620" width="70" height="30" as="geometry" />
        </mxCell>
        <mxCell id="YBqSXtyDXEX9drz1hpcT-316" value="mewb_q" style="text;html=1;resizable=0;autosize=1;align=center;verticalAlign=middle;points=[];fillColor=none;strokeColor=none;rounded=0;" vertex="1" parent="1">
          <mxGeometry x="-1859" y="750" width="70" height="30" as="geometry" />
        </mxCell>
        <mxCell id="YBqSXtyDXEX9drz1hpcT-317" value="MUX&lt;br&gt;_DATA" style="rounded=0;whiteSpace=wrap;html=1;fontSize=12;" vertex="1" parent="1">
          <mxGeometry x="-1782" y="875" width="54" height="100" as="geometry" />
        </mxCell>
        <mxCell id="YBqSXtyDXEX9drz1hpcT-318" value="" style="edgeStyle=none;orthogonalLoop=1;jettySize=auto;html=1;rounded=0;" edge="1" parent="1">
          <mxGeometry width="80" relative="1" as="geometry">
            <mxPoint x="-1802" y="899.9000000000001" as="sourcePoint" />
            <mxPoint x="-1782" y="899.9000000000001" as="targetPoint" />
            <Array as="points" />
          </mxGeometry>
        </mxCell>
        <mxCell id="YBqSXtyDXEX9drz1hpcT-319" value="mewb_alu" style="text;html=1;resizable=0;autosize=1;align=center;verticalAlign=middle;points=[];fillColor=none;strokeColor=none;rounded=0;" vertex="1" parent="1">
          <mxGeometry x="-1866.5" y="880" width="80" height="30" as="geometry" />
        </mxCell>
        <mxCell id="YBqSXtyDXEX9drz1hpcT-320" value="" style="edgeStyle=none;orthogonalLoop=1;jettySize=auto;html=1;rounded=0;" edge="1" parent="1">
          <mxGeometry width="80" relative="1" as="geometry">
            <mxPoint x="-1804.25" y="919.9000000000001" as="sourcePoint" />
            <mxPoint x="-1784.25" y="919.9000000000001" as="targetPoint" />
            <Array as="points" />
          </mxGeometry>
        </mxCell>
        <mxCell id="YBqSXtyDXEX9drz1hpcT-321" value="mewb_mul[31:0]" style="text;html=1;resizable=0;autosize=1;align=center;verticalAlign=middle;points=[];fillColor=none;strokeColor=none;rounded=0;" vertex="1" parent="1">
          <mxGeometry x="-1892" y="925" width="110" height="30" as="geometry" />
        </mxCell>
        <mxCell id="YBqSXtyDXEX9drz1hpcT-322" value="" style="edgeStyle=none;orthogonalLoop=1;jettySize=auto;html=1;rounded=0;" edge="1" parent="1">
          <mxGeometry width="80" relative="1" as="geometry">
            <mxPoint x="-1801.5" y="949.9000000000001" as="sourcePoint" />
            <mxPoint x="-1781.5" y="949.9000000000001" as="targetPoint" />
            <Array as="points" />
          </mxGeometry>
        </mxCell>
        <mxCell id="YBqSXtyDXEX9drz1hpcT-323" value="mewb_mdr" style="text;html=1;resizable=0;autosize=1;align=center;verticalAlign=middle;points=[];fillColor=none;strokeColor=none;rounded=0;" vertex="1" parent="1">
          <mxGeometry x="-1872" y="900" width="80" height="30" as="geometry" />
        </mxCell>
        <mxCell id="YBqSXtyDXEX9drz1hpcT-324" value="" style="edgeStyle=none;orthogonalLoop=1;jettySize=auto;html=1;rounded=0;" edge="1" parent="1">
          <mxGeometry width="80" relative="1" as="geometry">
            <mxPoint x="-1728" y="929.8299999999999" as="sourcePoint" />
            <mxPoint x="-1708" y="929.8299999999999" as="targetPoint" />
            <Array as="points" />
          </mxGeometry>
        </mxCell>
        <mxCell id="YBqSXtyDXEX9drz1hpcT-325" value="mux_data_out" style="text;html=1;resizable=0;autosize=1;align=center;verticalAlign=middle;points=[];fillColor=none;strokeColor=none;rounded=0;" vertex="1" parent="1">
          <mxGeometry x="-1728" y="905" width="100" height="30" as="geometry" />
        </mxCell>
        <mxCell id="YBqSXtyDXEX9drz1hpcT-326" value="MUX&lt;br&gt;_ADDR" style="rounded=0;whiteSpace=wrap;html=1;fontSize=12;" vertex="1" parent="1">
          <mxGeometry x="-1782" y="980" width="54" height="100" as="geometry" />
        </mxCell>
        <mxCell id="YBqSXtyDXEX9drz1hpcT-327" value="" style="edgeStyle=none;orthogonalLoop=1;jettySize=auto;html=1;rounded=0;" edge="1" parent="1">
          <mxGeometry width="80" relative="1" as="geometry">
            <mxPoint x="-1805.25" y="1007.45" as="sourcePoint" />
            <mxPoint x="-1785.25" y="1007.45" as="targetPoint" />
            <Array as="points" />
          </mxGeometry>
        </mxCell>
        <mxCell id="YBqSXtyDXEX9drz1hpcT-328" value="" style="edgeStyle=none;orthogonalLoop=1;jettySize=auto;html=1;rounded=0;" edge="1" parent="1">
          <mxGeometry width="80" relative="1" as="geometry">
            <mxPoint x="-1804" y="1027.45" as="sourcePoint" />
            <mxPoint x="-1784" y="1027.45" as="targetPoint" />
            <Array as="points" />
          </mxGeometry>
        </mxCell>
        <mxCell id="YBqSXtyDXEX9drz1hpcT-329" value="" style="edgeStyle=none;orthogonalLoop=1;jettySize=auto;html=1;rounded=0;" edge="1" parent="1">
          <mxGeometry width="80" relative="1" as="geometry">
            <mxPoint x="-1804" y="1047.45" as="sourcePoint" />
            <mxPoint x="-1784" y="1047.45" as="targetPoint" />
            <Array as="points" />
          </mxGeometry>
        </mxCell>
        <mxCell id="YBqSXtyDXEX9drz1hpcT-330" value="31" style="text;html=1;resizable=0;autosize=1;align=center;verticalAlign=middle;points=[];fillColor=none;strokeColor=none;rounded=0;" vertex="1" parent="1">
          <mxGeometry x="-1841.5" y="1032.55" width="40" height="30" as="geometry" />
        </mxCell>
        <mxCell id="YBqSXtyDXEX9drz1hpcT-331" value="" style="edgeStyle=none;orthogonalLoop=1;jettySize=auto;html=1;rounded=0;" edge="1" parent="1">
          <mxGeometry width="80" relative="1" as="geometry">
            <mxPoint x="-1723" y="1027.2100000000003" as="sourcePoint" />
            <mxPoint x="-1703" y="1027.2100000000003" as="targetPoint" />
            <Array as="points" />
          </mxGeometry>
        </mxCell>
        <mxCell id="YBqSXtyDXEX9drz1hpcT-332" value="mux_addr_out" style="text;html=1;resizable=0;autosize=1;align=center;verticalAlign=middle;points=[];fillColor=none;strokeColor=none;rounded=0;" vertex="1" parent="1">
          <mxGeometry x="-1728" y="1000" width="100" height="30" as="geometry" />
        </mxCell>
        <mxCell id="YBqSXtyDXEX9drz1hpcT-333" value="mewb_ir[rd]" style="text;html=1;resizable=0;autosize=1;align=center;verticalAlign=middle;points=[];fillColor=none;strokeColor=none;rounded=0;" vertex="1" parent="1">
          <mxGeometry x="-1884" y="990" width="90" height="30" as="geometry" />
        </mxCell>
        <mxCell id="YBqSXtyDXEX9drz1hpcT-334" value="mewb_ir[rt]" style="text;html=1;resizable=0;autosize=1;align=center;verticalAlign=middle;points=[];fillColor=none;strokeColor=none;rounded=0;" vertex="1" parent="1">
          <mxGeometry x="-1879" y="1010" width="80" height="30" as="geometry" />
        </mxCell>
        <mxCell id="YBqSXtyDXEX9drz1hpcT-335" value="EXT18" style="rounded=0;whiteSpace=wrap;html=1;fontSize=13;" vertex="1" parent="1">
          <mxGeometry x="-2012" y="150" width="51" height="35" as="geometry" />
        </mxCell>
        <mxCell id="YBqSXtyDXEX9drz1hpcT-336" value="" style="edgeStyle=none;orthogonalLoop=1;jettySize=auto;html=1;rounded=0;" edge="1" parent="1">
          <mxGeometry width="80" relative="1" as="geometry">
            <mxPoint x="-1961" y="167.5" as="sourcePoint" />
            <mxPoint x="-1941" y="167.5" as="targetPoint" />
            <Array as="points" />
          </mxGeometry>
        </mxCell>
        <mxCell id="YBqSXtyDXEX9drz1hpcT-337" value="ext18_out" style="text;html=1;resizable=0;autosize=1;align=center;verticalAlign=middle;points=[];fillColor=none;strokeColor=none;rounded=0;" vertex="1" parent="1">
          <mxGeometry x="-1969" y="142.5" width="80" height="30" as="geometry" />
        </mxCell>
        <mxCell id="YBqSXtyDXEX9drz1hpcT-338" value="" style="edgeStyle=none;orthogonalLoop=1;jettySize=auto;html=1;rounded=0;" edge="1" parent="1">
          <mxGeometry width="80" relative="1" as="geometry">
            <mxPoint x="-2032" y="167.3499999999999" as="sourcePoint" />
            <mxPoint x="-2012" y="167.3499999999999" as="targetPoint" />
            <Array as="points" />
          </mxGeometry>
        </mxCell>
        <mxCell id="YBqSXtyDXEX9drz1hpcT-339" value="ifid_ir[offset]||00" style="text;html=1;resizable=0;autosize=1;align=center;verticalAlign=middle;points=[];fillColor=none;strokeColor=none;rounded=0;" vertex="1" parent="1">
          <mxGeometry x="-2113" y="142.5" width="110" height="30" as="geometry" />
        </mxCell>
        <mxCell id="YBqSXtyDXEX9drz1hpcT-347" value="&lt;font style=&quot;font-size: 12px;&quot;&gt;ALUA&lt;/font&gt;" style="rounded=0;whiteSpace=wrap;html=1;fontSize=13;" vertex="1" parent="1">
          <mxGeometry x="-2408" y="1067.55" width="30" height="35" as="geometry" />
        </mxCell>
        <mxCell id="YBqSXtyDXEX9drz1hpcT-348" value="" style="edgeStyle=none;orthogonalLoop=1;jettySize=auto;html=1;rounded=0;" edge="1" parent="1">
          <mxGeometry width="80" relative="1" as="geometry">
            <mxPoint x="-2428" y="1087.4499999999998" as="sourcePoint" />
            <mxPoint x="-2408" y="1087.4499999999998" as="targetPoint" />
            <Array as="points" />
          </mxGeometry>
        </mxCell>
        <mxCell id="YBqSXtyDXEX9drz1hpcT-349" value="idex_alua" style="text;html=1;resizable=0;autosize=1;align=center;verticalAlign=middle;points=[];fillColor=none;strokeColor=none;rounded=0;" vertex="1" parent="1">
          <mxGeometry x="-2482.5" y="1062.55" width="70" height="30" as="geometry" />
        </mxCell>
        <mxCell id="YBqSXtyDXEX9drz1hpcT-350" value="" style="edgeStyle=none;orthogonalLoop=1;jettySize=auto;html=1;rounded=0;" edge="1" parent="1">
          <mxGeometry width="80" relative="1" as="geometry">
            <mxPoint x="-2378" y="1087.4499999999998" as="sourcePoint" />
            <mxPoint x="-2358" y="1087.4499999999998" as="targetPoint" />
            <Array as="points" />
          </mxGeometry>
        </mxCell>
        <mxCell id="YBqSXtyDXEX9drz1hpcT-351" value="exem_alua" style="text;html=1;resizable=0;autosize=1;align=center;verticalAlign=middle;points=[];fillColor=none;strokeColor=none;rounded=0;" vertex="1" parent="1">
          <mxGeometry x="-2388" y="1062.55" width="80" height="30" as="geometry" />
        </mxCell>
        <mxCell id="YBqSXtyDXEX9drz1hpcT-352" value="&lt;font style=&quot;font-size: 12px;&quot;&gt;ALUB&lt;/font&gt;" style="rounded=0;whiteSpace=wrap;html=1;fontSize=13;" vertex="1" parent="1">
          <mxGeometry x="-2408" y="1115" width="30" height="35" as="geometry" />
        </mxCell>
        <mxCell id="YBqSXtyDXEX9drz1hpcT-353" value="" style="edgeStyle=none;orthogonalLoop=1;jettySize=auto;html=1;rounded=0;" edge="1" parent="1">
          <mxGeometry width="80" relative="1" as="geometry">
            <mxPoint x="-2428" y="1134.8999999999999" as="sourcePoint" />
            <mxPoint x="-2408" y="1134.8999999999999" as="targetPoint" />
            <Array as="points" />
          </mxGeometry>
        </mxCell>
        <mxCell id="YBqSXtyDXEX9drz1hpcT-354" value="" style="edgeStyle=none;orthogonalLoop=1;jettySize=auto;html=1;rounded=0;" edge="1" parent="1">
          <mxGeometry width="80" relative="1" as="geometry">
            <mxPoint x="-2378" y="1134.8999999999999" as="sourcePoint" />
            <mxPoint x="-2358" y="1134.8999999999999" as="targetPoint" />
            <Array as="points" />
          </mxGeometry>
        </mxCell>
        <mxCell id="YBqSXtyDXEX9drz1hpcT-355" value="exem_alub" style="text;html=1;resizable=0;autosize=1;align=center;verticalAlign=middle;points=[];fillColor=none;strokeColor=none;rounded=0;" vertex="1" parent="1">
          <mxGeometry x="-2388" y="1110" width="80" height="30" as="geometry" />
        </mxCell>
        <mxCell id="YBqSXtyDXEX9drz1hpcT-356" value="idex_alub" style="text;html=1;resizable=0;autosize=1;align=center;verticalAlign=middle;points=[];fillColor=none;strokeColor=none;rounded=0;" vertex="1" parent="1">
          <mxGeometry x="-2484.5" y="1110" width="70" height="30" as="geometry" />
        </mxCell>
        <mxCell id="YBqSXtyDXEX9drz1hpcT-357" value="&lt;font style=&quot;font-size: 12px;&quot;&gt;ALUA&lt;/font&gt;" style="rounded=0;whiteSpace=wrap;html=1;fontSize=13;" vertex="1" parent="1">
          <mxGeometry x="-1961" y="1072.55" width="30" height="35" as="geometry" />
        </mxCell>
        <mxCell id="YBqSXtyDXEX9drz1hpcT-358" value="" style="edgeStyle=none;orthogonalLoop=1;jettySize=auto;html=1;rounded=0;" edge="1" parent="1">
          <mxGeometry width="80" relative="1" as="geometry">
            <mxPoint x="-1981" y="1092.4499999999998" as="sourcePoint" />
            <mxPoint x="-1961" y="1092.4499999999998" as="targetPoint" />
            <Array as="points" />
          </mxGeometry>
        </mxCell>
        <mxCell id="YBqSXtyDXEX9drz1hpcT-359" value="exem_alua" style="text;html=1;resizable=0;autosize=1;align=center;verticalAlign=middle;points=[];fillColor=none;strokeColor=none;rounded=0;" vertex="1" parent="1">
          <mxGeometry x="-2039.5" y="1067.55" width="80" height="30" as="geometry" />
        </mxCell>
        <mxCell id="YBqSXtyDXEX9drz1hpcT-360" value="" style="edgeStyle=none;orthogonalLoop=1;jettySize=auto;html=1;rounded=0;" edge="1" parent="1">
          <mxGeometry width="80" relative="1" as="geometry">
            <mxPoint x="-1931" y="1092.4499999999998" as="sourcePoint" />
            <mxPoint x="-1911" y="1092.4499999999998" as="targetPoint" />
            <Array as="points" />
          </mxGeometry>
        </mxCell>
        <mxCell id="YBqSXtyDXEX9drz1hpcT-361" value="mewb_alua" style="text;html=1;resizable=0;autosize=1;align=center;verticalAlign=middle;points=[];fillColor=none;strokeColor=none;rounded=0;" vertex="1" parent="1">
          <mxGeometry x="-1941" y="1067.55" width="80" height="30" as="geometry" />
        </mxCell>
        <mxCell id="YBqSXtyDXEX9drz1hpcT-362" value="&lt;font style=&quot;font-size: 12px;&quot;&gt;ALUB&lt;/font&gt;" style="rounded=0;whiteSpace=wrap;html=1;fontSize=13;" vertex="1" parent="1">
          <mxGeometry x="-1962" y="1117.5" width="30" height="35" as="geometry" />
        </mxCell>
        <mxCell id="YBqSXtyDXEX9drz1hpcT-363" value="" style="edgeStyle=none;orthogonalLoop=1;jettySize=auto;html=1;rounded=0;" edge="1" parent="1">
          <mxGeometry width="80" relative="1" as="geometry">
            <mxPoint x="-1982" y="1137.3999999999999" as="sourcePoint" />
            <mxPoint x="-1962" y="1137.3999999999999" as="targetPoint" />
            <Array as="points" />
          </mxGeometry>
        </mxCell>
        <mxCell id="YBqSXtyDXEX9drz1hpcT-364" value="" style="edgeStyle=none;orthogonalLoop=1;jettySize=auto;html=1;rounded=0;" edge="1" parent="1">
          <mxGeometry width="80" relative="1" as="geometry">
            <mxPoint x="-1932" y="1137.3999999999999" as="sourcePoint" />
            <mxPoint x="-1912" y="1137.3999999999999" as="targetPoint" />
            <Array as="points" />
          </mxGeometry>
        </mxCell>
        <mxCell id="YBqSXtyDXEX9drz1hpcT-365" value="mewb_alub" style="text;html=1;resizable=0;autosize=1;align=center;verticalAlign=middle;points=[];fillColor=none;strokeColor=none;rounded=0;" vertex="1" parent="1">
          <mxGeometry x="-1942" y="1112.5" width="80" height="30" as="geometry" />
        </mxCell>
        <mxCell id="YBqSXtyDXEX9drz1hpcT-366" value="exem_alub" style="text;html=1;resizable=0;autosize=1;align=center;verticalAlign=middle;points=[];fillColor=none;strokeColor=none;rounded=0;" vertex="1" parent="1">
          <mxGeometry x="-2046.5" y="1115" width="80" height="30" as="geometry" />
        </mxCell>
        <mxCell id="YBqSXtyDXEX9drz1hpcT-367" value="" style="edgeStyle=none;orthogonalLoop=1;jettySize=auto;html=1;rounded=0;" edge="1" parent="1">
          <mxGeometry width="80" relative="1" as="geometry">
            <mxPoint x="-1802.25" y="964.9000000000001" as="sourcePoint" />
            <mxPoint x="-1782.25" y="964.9000000000001" as="targetPoint" />
            <Array as="points" />
          </mxGeometry>
        </mxCell>
        <mxCell id="YBqSXtyDXEX9drz1hpcT-368" value="mewb_alub" style="text;html=1;resizable=0;autosize=1;align=center;verticalAlign=middle;points=[];fillColor=none;strokeColor=none;rounded=0;" vertex="1" parent="1">
          <mxGeometry x="-1870" y="945" width="80" height="30" as="geometry" />
        </mxCell>
      </root>
    </mxGraphModel>
  </diagram>
</mxfile>
